<?xml version="1.0" encoding="UTF-8" standalone="no"?>
<!-- Created with Inkscape (http://www.inkscape.org/) -->

<svg
   width="85.732971mm"
   height="85.732971mm"
   viewBox="0 0 85.732971 85.732971"
   version="1.1"
   id="svg5"
   xml:space="preserve"
   sodipodi:docname="dibujo.svg"
   inkscape:version="1.2 (1:1.2.1+202207142221+cd75a1ee6d)"
   xmlns:inkscape="http://www.inkscape.org/namespaces/inkscape"
   xmlns:sodipodi="http://sodipodi.sourceforge.net/DTD/sodipodi-0.dtd"
   xmlns="http://www.w3.org/2000/svg"
   xmlns:svg="http://www.w3.org/2000/svg"><sodipodi:namedview
   id="namedview7"
   pagecolor="#ffffff"
   bordercolor="#000000"
   borderopacity="0.25"
   inkscape:showpageshadow="2"
   inkscape:pageopacity="0.0"
   inkscape:pagecheckerboard="0"
   inkscape:deskcolor="#d1d1d1"
   inkscape:document-units="mm"
   showgrid="false"
   inkscape:zoom="1.0708779"
   inkscape:cx="37.352531"
   inkscape:cy="173.22236"
   inkscape:window-width="2510"
   inkscape:window-height="1016"
   inkscape:window-x="50"
   inkscape:window-y="27"
   inkscape:window-maximized="1"
   inkscape:current-layer="layer3" /><defs
   id="defs2" /><g
   inkscape:groupmode="layer"
   id="layer3"
   inkscape:label="CaraFeliz"
   style="display:inline"><g
     id="SvgjsG1014"
     featurekey="symbolFeature-0"
     transform="matrix(1.5432529,0,0,1.5432529,-32.40831,-33.565748)"
     fill="#111111"
     style="display:inline">
    <g
   id="g191"><path
     d="m 40.17,39.85 c 0.21,0.51 0.8,0.75 1.31,0.53 0.51,-0.21 0.75,-0.8 0.53,-1.31 -0.98,-2.32 -3.24,-3.82 -5.76,-3.82 -3.45,0 -6.25,2.81 -6.25,6.26 0,0.84 0.17,1.66 0.49,2.43 0.16,0.38 0.53,0.61 0.92,0.61 0.13,0 0.26,-0.03 0.39,-0.08 0.51,-0.21 0.75,-0.8 0.53,-1.31 C 32.11,42.64 32,42.08 32,41.5 c 0,-2.35 1.91,-4.26 4.25,-4.26 1.71,0.01 3.25,1.03 3.92,2.61 z"
     id="path185" /><path
     d="m 49,21.75 c -15.44,0 -28,12.56 -28,28 0,15.44 12.56,28 28,28 15.44,0 28,-12.56 28,-28 0,-15.44 -12.56,-28 -28,-28 z m 0,53 c -13.81,0 -25,-11.19 -25,-25 0,-13.81 11.19,-25 25,-25 13.81,0 25,11.19 25,25 0,13.81 -11.19,25 -25,25 z"
     id="path183" /><path
     d="m 55.25,30.07 c -3.45,0 -6.25,2.81 -6.25,6.25 0,0.84 0.17,1.66 0.49,2.44 0.16,0.38 0.53,0.61 0.92,0.61 0.13,0 0.26,-0.03 0.39,-0.08 0.51,-0.22 0.75,-0.8 0.53,-1.31 C 51.11,37.46 51,36.9 51,36.33 c 0,-2.35 1.91,-4.25 4.25,-4.25 1.71,0 3.25,1.02 3.92,2.6 0.21,0.51 0.8,0.75 1.31,0.53 0.51,-0.21 0.75,-0.8 0.53,-1.31 -0.97,-2.33 -3.24,-3.83 -5.76,-3.83 z"
     id="path187" /><path
     d="m 57.39,44.75 c -0.5,-0.22 -1.09,0.02 -1.31,0.52 -1.23,2.88 -3.8,5.17 -6.86,6.13 -2.28,0.71 -5.86,1.02 -10.02,-1.58 -0.47,-0.29 -1.09,-0.15 -1.38,0.32 -0.29,0.47 -0.15,1.09 0.32,1.38 2.52,1.57 5.21,2.38 7.86,2.38 1.3,0 2.58,-0.19 3.82,-0.58 3.61,-1.13 6.64,-3.84 8.1,-7.25 0.22,-0.52 -0.02,-1.11 -0.53,-1.32 z"
     id="path189" /></g></g></g><g
   inkscape:groupmode="layer"
   id="layer4"
   inkscape:label="CaraNormal"
   style="display:inline"><g
     id="g192">
    <path
   d="M 42.866485,85.732971 A 42.866485,42.866485 0 1 0 0,42.866485 42.914757,42.914757 0 0 0 42.866485,85.732971 Z m 0,-83.0538157 A 40.18733,40.18733 0 1 1 2.6791553,42.866485 40.232956,40.232956 0 0 1 42.866485,2.6791553 Z"
   id="path257" /><path
   d="m 57.60184,38.847752 c 3.380344,0 6.028099,-4.118806 6.028099,-9.377043 0,-5.258238 -2.647755,-9.377044 -6.028099,-9.377044 -3.380344,0 -6.0281,4.118806 -6.0281,9.377044 0,5.258237 2.647763,9.377043 6.0281,9.377043 z m 0,-16.074932 c 1.584205,0 3.348944,2.750776 3.348944,6.697889 0,3.947112 -1.764739,6.697888 -3.348944,6.697888 -1.584205,0 -3.348944,-2.750776 -3.348944,-6.697888 0,-3.947113 1.764739,-6.697889 3.348944,-6.697889 z"
   id="path259"
   style="stroke-width:0.669789" /><path
   d="m 28.131131,38.847752 c 3.380344,0 6.0281,-4.118806 6.0281,-9.377043 0,-5.258238 -2.647756,-9.377044 -6.0281,-9.377044 -3.380344,0 -6.028099,4.118806 -6.028099,9.377044 0,5.258237 2.647762,9.377043 6.028099,9.377043 z m 0,-16.074932 c 1.584205,0 3.348944,2.750776 3.348944,6.697889 0,3.947112 -1.764739,6.697888 -3.348944,6.697888 -1.584205,0 -3.348944,-2.750776 -3.348944,-6.697888 0,-3.947113 1.764739,-6.697889 3.348944,-6.697889 z"
   id="path261"
   style="stroke-width:0.669789" /><path
   d="m 18.419193,58.941418 a 6.654754,6.654754 0 0 0 3.67915,-1.107255 c 4.780705,7.595626 12.246828,11.93703 20.551613,11.93703 0.06541,0 0.132779,-6.7e-4 0.198847,-0.0013 a 24.803868,24.803868 0 0 0 20.788002,-11.934297 6.6548276,6.6548276 0 0 0 3.676973,1.105862 1.339578,1.339578 0 0 0 0,-2.679156 4.0231268,4.0231268 0 0 1 -4.018733,-4.018733 1.3395777,1.3395777 0 0 0 -2.679155,0 6.6563614,6.6563614 0 0 0 1.118125,3.697087 1.3302542,1.3302542 0 0 0 -0.259958,0.305953 22.118872,22.118872 0 0 1 -18.647471,10.844839 c -0.05821,0 -0.116429,6.7e-4 -0.175297,6.7e-4 -7.429164,0 -14.129664,-3.952672 -18.404149,-10.864444 a 1.3260412,1.3260412 0 0 0 -0.247943,-0.287339 6.6560132,6.6560132 0 0 0 1.117884,-3.696766 1.3395777,1.3395777 0 0 0 -2.679155,0 4.0231268,4.0231268 0 0 1 -4.018733,4.018733 1.339578,1.339578 0 0 0 0,2.679156 z"
   id="path263"
   style="stroke-width:0.669789" />          
  </g></g>
  
</svg>
