<?xml version="1.0" encoding="UTF-8" standalone="no"?>
<!-- Created with Inkscape (http://www.inkscape.org/) -->

<svg
   width="35.888306mm"
   height="35.888306mm"
   viewBox="0 0 35.888306 35.888306"
   version="1.1"
   id="svg357"
   inkscape:version="1.2 (1:1.2.1+202207142221+cd75a1ee6d)"
   sodipodi:docname="icon.svg"
   xmlns:inkscape="http://www.inkscape.org/namespaces/inkscape"
   xmlns:sodipodi="http://sodipodi.sourceforge.net/DTD/sodipodi-0.dtd"
   xmlns="http://www.w3.org/2000/svg"
   xmlns:svg="http://www.w3.org/2000/svg">
  <sodipodi:namedview
     id="namedview359"
     pagecolor="#ffffff"
     bordercolor="#000000"
     borderopacity="0.25"
     inkscape:showpageshadow="2"
     inkscape:pageopacity="0.0"
     inkscape:pagecheckerboard="0"
     inkscape:deskcolor="#d1d1d1"
     inkscape:document-units="mm"
     showgrid="false"
     inkscape:zoom="3.0289001"
     inkscape:cx="50.183233"
     inkscape:cy="90.296804"
     inkscape:window-width="2510"
     inkscape:window-height="1016"
     inkscape:window-x="50"
     inkscape:window-y="27"
     inkscape:window-maximized="1"
     inkscape:current-layer="g191" />
  <defs
     id="defs354" />
  <g
     inkscape:label="Capa 1"
     inkscape:groupmode="layer"
     id="layer1"
     transform="translate(-110.63938,-58.227613)"
     sodipodi:insensitive="true"
     style="display:inline">
    <g
       id="SvgjsG2410"
       featurekey="symbolFeature-0"
       transform="matrix(0.28037738,0,0,0.28037738,110.63938,58.227613)"
       fill="#118df0">
      <title
         id="title255">89 Web Icon Set 45 expanded</title>
      <path
         d="M 64,128 A 64,64 0 1 0 0,64 64.07207,64.07207 0 0 0 64,128 Z M 64,4 A 60,60 0 1 1 4,64 60.06812,60.06812 0 0 1 64,4 Z"
         id="path257" />
      <path
         d="m 86,58 c 5.04688,0 9,-6.14941 9,-14 0,-7.85059 -3.95312,-14 -9,-14 -5.04688,0 -9,6.14941 -9,14 0,7.85059 3.95313,14 9,14 z m 0,-24 c 2.36523,0 5,4.10693 5,10 0,5.89307 -2.63477,10 -5,10 -2.36523,0 -5,-4.10693 -5,-10 0,-5.89307 2.63477,-10 5,-10 z"
         id="path259" />
      <path
         d="m 42,58 c 5.04688,0 9,-6.14941 9,-14 0,-7.85059 -3.95312,-14 -9,-14 -5.04688,0 -9,6.14941 -9,14 0,7.85059 3.95313,14 9,14 z m 0,-24 c 2.36523,0 5,4.10693 5,10 0,5.89307 -2.63477,10 -5,10 -2.36523,0 -5,-4.10693 -5,-10 0,-5.89307 2.63477,-10 5,-10 z"
         id="path261" />
      <path
         d="m 27.5,88 a 9.9356,9.9356 0 0 0 5.493,-1.65314 c 7.13763,11.34033 18.28461,17.82208 30.68372,17.82208 0.09766,0 0.19824,-0.001 0.29688,-0.002 A 37.03237,37.03237 0 0 0 95.01025,86.34894 9.93571,9.93571 0 0 0 100.5,88 a 2,2 0 0 0 0,-4 6.00656,6.00656 0 0 1 -6,-6 2,2 0 0 0 -4,0 9.938,9.938 0 0 0 1.66937,5.51978 1.98608,1.98608 0 0 0 -0.38812,0.45679 33.02365,33.02365 0 0 1 -27.84082,16.19143 c -0.08691,0 -0.17383,10e-4 -0.26172,10e-4 -11.0918,0 -21.0957,-5.90137 -27.47754,-16.2207 A 1.97979,1.97979 0 0 0 35.83099,83.5193 9.93748,9.93748 0 0 0 37.5,78 a 2,2 0 0 0 -4,0 6.00656,6.00656 0 0 1 -6,6 2,2 0 0 0 0,4 z"
         id="path263" />
    </g>
  </g>
  <g
     inkscape:groupmode="layer"
     id="layer2"
     inkscape:label="Cara2"
     style="display:inline">
    <g
       id="SvgjsG1014"
       featurekey="symbolFeature-0"
       transform="matrix(0.64872035,0,0,0.65948152,-13.737672,-14.644429)"
       fill="#111111">
      <g
         id="g191">
        <path
           d="m 40.17,39.85 c 0.21,0.51 0.8,0.75 1.31,0.53 0.51,-0.21 0.75,-0.8 0.53,-1.31 -0.98,-2.32 -3.24,-3.82 -5.76,-3.82 -3.45,0 -6.25,2.81 -6.25,6.26 0,0.84 0.17,1.66 0.49,2.43 0.16,0.38 0.53,0.61 0.92,0.61 0.13,0 0.26,-0.03 0.39,-0.08 0.51,-0.21 0.75,-0.8 0.53,-1.31 C 32.11,42.64 32,42.08 32,41.5 c 0,-2.35 1.91,-4.26 4.25,-4.26 1.71,0.01 3.25,1.03 3.92,2.61 z"
           id="path185" />
        <path
           d="m 49,21.75 c -15.44,0 -28,12.56 -28,28 0,15.44 12.56,28 28,28 15.44,0 28,-12.56 28,-28 0,-15.44 -12.56,-28 -28,-28 z m 0,53 c -13.81,0 -25,-11.19 -25,-25 0,-13.81 11.19,-25 25,-25 13.81,0 25,11.19 25,25 0,13.81 -11.19,25 -25,25 z"
           id="path183" />
        <path
           d="m 55.25,30.07 c -3.45,0 -6.25,2.81 -6.25,6.25 0,0.84 0.17,1.66 0.49,2.44 0.16,0.38 0.53,0.61 0.92,0.61 0.13,0 0.26,-0.03 0.39,-0.08 0.51,-0.22 0.75,-0.8 0.53,-1.31 C 51.11,37.46 51,36.9 51,36.33 c 0,-2.35 1.91,-4.25 4.25,-4.25 1.71,0 3.25,1.02 3.92,2.6 0.21,0.51 0.8,0.75 1.31,0.53 0.51,-0.21 0.75,-0.8 0.53,-1.31 -0.97,-2.33 -3.24,-3.83 -5.76,-3.83 z"
           id="path187" />
        <path
           d="m 57.39,44.75 c -0.5,-0.22 -1.09,0.02 -1.31,0.52 -1.23,2.88 -3.8,5.17 -6.86,6.13 -2.28,0.71 -5.86,1.02 -10.02,-1.58 -0.47,-0.29 -1.09,-0.15 -1.38,0.32 -0.29,0.47 -0.15,1.09 0.32,1.38 2.52,1.57 5.21,2.38 7.86,2.38 1.3,0 2.58,-0.19 3.82,-0.58 3.61,-1.13 6.64,-3.84 8.1,-7.25 0.22,-0.52 -0.02,-1.11 -0.53,-1.32 z"
           id="path189" />
      </g>
    </g>
  </g>
</svg>
