<svg width="339.1020925600497" height="257.4" viewBox="0 0 349.99999999999994 265.6722030815733" class="looka-1j8o68f"><defs id="SvgjsDefs2409"></defs><g id="SvgjsG2410" featurekey="symbolFeature-0" transform="matrix(1.09375,0,0,1.09375,105,0)" fill="#118df0"><title xmlns="http://www.w3.org/2000/svg">89 Web Icon Set 45 expanded</title><path xmlns="http://www.w3.org/2000/svg" d="M64,128A64,64,0,1,0,0,64,64.07207,64.07207,0,0,0,64,128ZM64,4A60,60,0,1,1,4,64,60.06812,60.06812,0,0,1,64,4Z"></path><path xmlns="http://www.w3.org/2000/svg" d="M86,58c5.04688,0,9-6.14941,9-14s-3.95312-14-9-14-9,6.14941-9,14S80.95313,58,86,58Zm0-24c2.36523,0,5,4.10693,5,10s-2.63477,10-5,10-5-4.10693-5-10S83.63477,34,86,34Z"></path><path xmlns="http://www.w3.org/2000/svg" d="M42,58c5.04688,0,9-6.14941,9-14s-3.95312-14-9-14-9,6.14941-9,14S36.95313,58,42,58Zm0-24c2.36523,0,5,4.10693,5,10s-2.63477,10-5,10-5-4.10693-5-10S39.63477,34,42,34Z"></path><path xmlns="http://www.w3.org/2000/svg" d="M27.5,88a9.9356,9.9356,0,0,0,5.493-1.65314c7.13763,11.34033,18.28461,17.82208,30.68372,17.82208.09766,0,.19824-.001.29688-.002A37.03237,37.03237,0,0,0,95.01025,86.34894,9.93571,9.93571,0,0,0,100.5,88a2,2,0,0,0,0-4,6.00656,6.00656,0,0,1-6-6,2,2,0,0,0-4,0,9.938,9.938,0,0,0,1.66937,5.51978,1.98608,1.98608,0,0,0-.38812.45679A33.02365,33.02365,0,0,1,63.94043,100.168c-.08691,0-.17383.001-.26172.001-11.0918,0-21.0957-5.90137-27.47754-16.2207a1.97979,1.97979,0,0,0-.37018-.429A9.93748,9.93748,0,0,0,37.5,78a2,2,0,0,0-4,0,6.00656,6.00656,0,0,1-6,6,2,2,0,0,0,0,4Z"></path></g><g id="SvgjsG2411" featurekey="nameFeature-0" transform="matrix(1.773533223863801,0,0,1.773533223863801,3.898086406587223e-7,144.8623174467202)" fill="#118df0"><path d="M9.36 39.88 c-1 0.16 -2.08 0.2 -3.16 -0.04 c-1.12 -0.24 -2.16 -0.8 -2.96 -1.48 c-0.8 -0.64 -1.36 -1.4 -1.76 -2.12 s-0.68 -1.36 -0.88 -1.96 c-0.36 -1.2 -0.48 -2.12 -0.56 -2.8 c0 -0.32 -0.04 -0.56 -0.04 -0.72 l0 -0.28 s0.04 -0.04 0.12 -0.16 c0.08 -0.08 0.2 -0.2 0.36 -0.32 c0.28 -0.24 0.64 -0.4 1.04 -0.24 c0.76 0.32 0.92 0.6 1.44 0.48 c0.28 -0.04 0.48 0 0.64 0.04 c0.12 0.04 0.2 0.08 0.2 0.08 c0 0.64 0.04 1.32 0.16 1.92 c0.12 0.64 0.28 1.28 0.56 1.84 c0.24 0.56 0.6 1.04 1.04 1.44 s0.96 0.68 1.52 0.8 l0.04 -0.28 c-0.48 -0.12 -0.92 -0.36 -1.28 -0.68 s-0.64 -0.76 -0.88 -1.24 c-0.24 -0.44 -0.4 -1 -0.52 -1.52 c-0.12 -0.56 -0.16 -1.12 -0.16 -1.72 c0 0 0.24 -0.04 0.56 -0.04 c0.32 -0.04 0.76 0 1.16 0.08 c0 0 0.04 0.08 0.04 0.2 s0 0.32 0.04 0.52 c0.04 0.24 0.08 0.52 0.16 0.8 s0.2 0.6 0.32 0.84 c0.16 0.28 0.32 0.52 0.48 0.64 s0.32 0.24 0.6 0.28 c0.28 0.08 0.72 0.08 1.24 -0.04 c0.56 -0.12 1.16 -0.32 1.84 -0.64 c0.32 -0.12 0.68 -0.32 0.96 -0.44 c0.12 -0.12 0.24 -0.2 0.36 -0.28 s0.24 -0.16 0.28 -0.16 c0.08 -0.04 0.12 -0.12 0.12 -0.2 c0 -0.04 0 -0.08 -0.04 -0.12 c0.04 0.04 -0.16 -0.28 -0.4 -0.52 c-0.44 -0.48 -1.08 -1.04 -1.72 -1.56 c-0.72 -0.56 -1.4 -1.12 -2.04 -1.64 c-0.36 -0.32 -0.72 -0.6 -1.08 -0.92 c-0.36 -0.36 -0.72 -0.72 -1.12 -1.16 c-0.08 -0.12 -0.2 -0.24 -0.28 -0.36 s-0.2 -0.32 -0.28 -0.44 c-0.12 -0.24 -0.28 -0.44 -0.36 -0.68 c-0.12 -0.28 -0.24 -0.48 -0.36 -0.76 l-0.12 -0.36 s-0.08 -0.24 -0.12 -0.4 c-0.28 -1 -0.36 -2 -0.28 -2.88 c0.08 -1.2 0.4 -2.36 0.84 -3.44 c0.24 -0.52 0.48 -1 0.76 -1.48 s0.6 -0.96 0.92 -1.4 c0.36 -0.44 0.68 -0.84 1.04 -1.24 s0.72 -0.8 1.12 -1.16 l1.2 -1.08 c0.2 -0.16 0.44 -0.32 0.64 -0.48 c0.12 -0.08 0.24 -0.16 0.32 -0.24 l0.12 -0.08 l0.04 0 l0.04 -0.04 l0.24 -0.16 c0.16 -0.12 0.32 -0.2 0.48 -0.28 c0.08 -0.08 0.2 -0.12 0.28 -0.16 l0.28 -0.12 c0.2 -0.12 0.36 -0.2 0.56 -0.28 s0.4 -0.12 0.6 -0.2 c0.76 -0.24 1.52 -0.36 2.24 -0.28 s1.4 0.32 2 0.68 c0.6 0.4 1.08 0.88 1.44 1.44 c0.32 0.6 0.56 1.24 0.68 1.88 c0.16 0.64 0.16 1.32 0.16 1.96 c-0.04 0.32 -0.04 0.64 -0.12 0.92 c0 0.16 -0.04 0.32 -0.08 0.44 c0 0.12 -0.04 0.2 -0.08 0.32 c-0.08 0.44 -0.2 0.8 -0.36 1.16 c-0.36 1.08 -1.08 1.88 -1.76 2.32 c-0.36 0.2 -0.68 0.32 -0.96 0.32 s-0.48 -0.04 -0.6 -0.2 l-1.44 -1.68 c-0.16 -0.16 -0.24 -0.36 -0.28 -0.56 c-0.04 -0.16 -0.08 -0.4 -0.04 -0.6 c0 -0.4 0.08 -0.88 0.28 -1.36 c0.08 -0.2 0.16 -0.44 0.2 -0.68 c0.04 -0.16 0.04 -0.16 0.04 -0.2 l0 -0.12 c0 -0.12 0 -0.32 -0.12 -0.44 c-0.04 -0.08 -0.12 -0.08 -0.24 -0.08 c-0.08 0 -0.16 0 -0.24 0.04 c-0.04 0.04 -0.08 0.04 -0.12 0.08 c-0.04 0 -0.08 0.04 -0.12 0.04 l-0.04 0.04 l-0.04 0.04 l-0.04 0 l0 0.04 c-0.2 0.12 -0.36 0.24 -0.56 0.4 s-0.36 0.28 -0.56 0.44 c-0.72 0.64 -1.44 1.4 -2 2.16 c-0.6 0.8 -1.08 1.64 -1.32 2.4 c-0.28 0.8 -0.32 1.52 -0.16 2.16 c0.04 0.28 0.16 0.6 0.32 0.88 c0.04 0.08 0.12 0.16 0.16 0.24 l0 0.04 l0.04 0 l0.04 0.08 c0.08 0.08 0.2 0.24 0.32 0.36 c0.36 0.36 0.84 0.76 1.4 1.16 c0.56 0.48 1.16 0.92 1.76 1.4 c0.64 0.48 1.32 1 2 1.68 c0.36 0.32 0.68 0.68 1.04 1.12 c0.08 0.08 0.2 0.24 0.28 0.36 c0.12 0.12 0.2 0.32 0.32 0.48 c0.2 0.32 0.36 0.64 0.52 1 c0.12 0.32 0.24 0.72 0.32 1.08 c0.04 0.36 0.08 0.72 0.04 1.12 c-0.04 0.72 -0.24 1.48 -0.6 2.12 c-0.36 0.68 -0.84 1.24 -1.44 1.76 c-0.28 0.24 -0.48 0.4 -0.72 0.56 c-0.08 0.08 -0.2 0.16 -0.32 0.24 s-0.2 0.12 -0.32 0.2 c-0.2 0.12 -0.44 0.24 -0.64 0.36 s-0.4 0.24 -0.6 0.32 c-0.2 0.12 -0.4 0.2 -0.6 0.32 c-0.2 0.08 -0.44 0.2 -0.64 0.28 c-0.88 0.36 -1.8 0.64 -2.8 0.8 z M37.544 38.84 c0 0 -0.76 0.44 -1.52 0.28 c-0.8 -0.16 -0.96 -0.32 -1.48 -0.28 s-0.84 -0.12 -0.84 -0.12 c0.04 -0.44 0.08 -0.92 0.12 -1.4 c-0.12 0.12 -0.28 0.2 -0.4 0.32 l-0.04 0.04 l-0.08 0.68 s-0.4 0.04 -0.88 0 c-0.36 0.2 -0.68 0.44 -1.08 0.64 s-0.8 0.44 -1.28 0.64 c-0.2 0.08 -0.48 0.16 -0.72 0.28 c-0.12 0.04 -0.28 0.08 -0.4 0.12 l-0.2 0.04 l-0.2 0.08 c-0.16 0 -0.32 0.04 -0.48 0.08 l-0.24 0.04 c-0.12 0 -0.2 0 -0.32 0.04 c-0.36 0 -0.72 0 -1.12 -0.04 c-0.72 -0.08 -1.44 -0.28 -2.08 -0.68 c-0.48 -0.24 -0.88 -0.56 -1.24 -0.96 c-0.36 -0.36 -0.68 -0.8 -0.92 -1.24 l-0.12 -0.16 l-0.08 -0.16 l-0.12 -0.32 c-0.04 -0.12 -0.08 -0.2 -0.12 -0.32 c-0.04 -0.08 -0.08 -0.2 -0.12 -0.28 c-0.12 -0.4 -0.2 -0.76 -0.28 -1.16 c-0.24 -1.44 -0.16 -2.68 -0.08 -3.8 c0.04 -0.56 0.12 -1.08 0.2 -1.56 c0.04 -0.48 0.12 -0.92 0.2 -1.36 c0.04 -0.48 0.12 -0.92 0.16 -1.32 c0.08 -0.44 0.16 -0.84 0.24 -1.24 c0.48 -2.56 1.2 -5.36 1.72 -7.8 c0.24 -1.24 0.44 -2.4 0.56 -3.4 c0 -0.16 0 -0.28 0.04 -0.4 l0 -0.36 c0.04 -0.24 0.04 -0.44 0.04 -0.68 l0 -0.6 s0.04 -0.4 0 -0.56 c0 -0.28 0 -0.48 0.08 -0.72 c0.04 -0.12 0.04 -0.2 0.08 -0.32 c0.04 -0.08 0.08 -0.2 0.16 -0.28 c0.2 -0.36 0.56 -0.64 0.96 -0.72 l2.16 -0.36 c0.4 -0.08 0.8 0.12 1.12 0.52 c0.16 0.2 0.32 0.44 0.4 0.72 s0.16 0.6 0.16 0.92 c0.04 1.08 0.04 2.44 -0.16 3.96 c-0.2 1.48 -0.52 3.12 -0.88 4.76 c-0.36 1.68 -0.8 3.36 -1.12 4.96 l-0.24 1.2 c-0.04 0.4 -0.12 0.8 -0.16 1.2 c-0.12 0.8 -0.2 1.6 -0.32 2.4 c-0.08 0.68 -0.16 1.4 -0.16 2.08 s0.04 1.28 0.12 1.76 c0.04 0.2 0.12 0.4 0.16 0.52 c0.04 0.04 0.08 0.12 0.08 0.16 l0.04 0 l0 0 s-0.04 0 0 0 l0 0 c0.04 0.04 0.08 0.04 0.12 0.04 c0.04 0.04 0.08 0.04 0.08 0 l0.04 0 l-0.04 0 l0.08 0 c0.04 -0.04 0.08 -0.04 0.12 -0.04 c0.08 -0.04 0.12 -0.04 0.2 -0.08 c0.2 -0.08 0.48 -0.2 0.76 -0.36 c0.24 -0.12 0.52 -0.32 0.8 -0.48 c0.52 -0.36 1 -0.76 1.44 -1.16 s0.84 -0.8 1.2 -1.16 c0.32 -0.32 0.56 -0.6 0.8 -0.84 c0.28 -1.64 0.56 -3.36 0.84 -4.96 c0.32 -1.84 0.6 -3.56 0.84 -4.88 c0.56 -3.52 1.2 -8.04 1.44 -10.32 c0.08 -0.84 0.8 -1.44 1.64 -1.36 l2.2 0.24 c0.8 0.08 1.36 0.84 1.28 1.68 c-0.16 1.4 -0.44 3.56 -0.8 5.92 c-0.32 2.36 -0.72 4.96 -1.04 7.24 c-0.36 2.6 -1.08 9.44 -1.08 9.48 c-0.08 0.72 -0.12 1.44 -0.16 2.08 c0 0.6 -0.04 1.16 -0.08 1.64 l0 1.48 z M33.744 35 c0.12 -0.12 0.24 -0.2 0.36 -0.32 l0.04 -0.36 l-0.16 0 c-0.04 0.04 -0.08 0.08 -0.16 0.12 z M58.888000000000005 38.36 l0 0.6 l0 0.2 s-0.16 0.04 -0.44 0.12 c-0.28 0.04 -0.68 0.08 -1.04 0.04 c-0.76 -0.04 -0.96 -0.16 -1.48 -0.12 s-0.84 -0.04 -0.84 -0.04 c0.04 -0.48 0.08 -0.88 0.12 -1.32 c-0.04 0 -0.08 0.04 -0.08 0.04 c-0.12 0.08 -0.24 0.12 -0.36 0.2 l-0.12 0.84 l-0.56 0 c-0.28 0 -0.6 -0.04 -0.92 -0.08 l-0.6 0.24 c-0.48 0.2 -0.96 0.36 -1.52 0.52 l-0.84 0.24 c-0.16 0.04 -0.32 0.04 -0.48 0.08 s-0.32 0.04 -0.48 0.08 c-0.36 0.04 -0.72 0.08 -1.04 0.04 l-0.52 0 l-0.28 0 l-0.28 -0.04 c-0.2 -0.04 -0.36 -0.04 -0.56 -0.08 c-0.16 -0.04 -0.36 -0.08 -0.56 -0.12 c-0.12 -0.04 -0.2 -0.04 -0.28 -0.08 l-0.32 -0.12 l-0.28 -0.12 c-0.12 -0.04 -0.2 -0.08 -0.32 -0.12 c-0.76 -0.36 -1.52 -0.96 -2.08 -1.64 c-0.12 -0.2 -0.28 -0.36 -0.4 -0.56 c-0.12 -0.16 -0.2 -0.36 -0.32 -0.52 c-0.16 -0.4 -0.36 -0.76 -0.48 -1.12 c-0.04 -0.2 -0.12 -0.36 -0.16 -0.56 c-0.04 -0.16 -0.08 -0.36 -0.12 -0.52 c-0.04 -0.36 -0.12 -0.72 -0.12 -1.04 c-0.08 -0.68 -0.08 -1.36 -0.08 -1.96 c0.08 -1.28 0.24 -2.48 0.48 -3.6 c0.2 -1.12 0.48 -2.24 0.8 -3.24 c0.12 -0.48 0.28 -0.96 0.44 -1.48 c0.16 -0.48 0.32 -0.96 0.52 -1.52 c0.4 -1.04 0.8 -2.12 1.32 -3.16 c0.96 -2.08 2.16 -4.16 3.76 -5.96 c0.8 -0.92 1.72 -1.72 2.8 -2.36 c0.12 -0.08 0.24 -0.16 0.4 -0.2 c0.12 -0.08 0.28 -0.16 0.4 -0.2 c0.28 -0.16 0.56 -0.24 0.88 -0.36 c0.12 -0.04 0.28 -0.08 0.44 -0.12 c0.12 -0.04 0.28 -0.08 0.44 -0.12 l0.84 -0.12 l0.8 0 c0.28 0 0.52 0 0.76 0.04 c0.12 0 0.2 0.04 0.32 0.04 c0.12 0.04 0.2 0.04 0.32 0.08 c0.2 0.04 0.4 0.08 0.56 0.12 c0.32 0.12 0.6 0.2 0.8 0.28 c0.28 0.12 0.48 0.2 0.64 0.24 c0.6 0.32 1.08 0.76 1.48 1.2 c0.08 0.12 0.2 0.2 0.28 0.32 c0.04 0.08 0.08 0.12 0.12 0.2 c0.04 0.04 0.08 0.08 0.12 0.16 c0.16 0.2 0.28 0.4 0.4 0.6 c0.4 0.8 0.6 1.48 0.76 2.08 c0.24 1.2 0.24 2 0.24 2.6 c-0.04 0.56 -0.04 0.92 -0.08 1.12 s-0.04 0.28 -0.04 0.28 s-0.2 0.24 -0.52 0.4 s-0.68 0.28 -1.04 0.08 c-0.76 -0.36 -0.88 -0.64 -1.4 -0.64 c-0.28 0.04 -0.48 -0.04 -0.64 -0.08 c-0.12 -0.08 -0.2 -0.12 -0.2 -0.12 c0.16 -1 0.2 -1.96 0 -2.88 c-0.08 -0.48 -0.24 -0.92 -0.44 -1.28 l-0.12 -0.12 l-0.08 -0.16 c-0.04 -0.08 -0.12 -0.16 -0.2 -0.2 c-0.12 -0.16 -0.28 -0.32 -0.48 -0.4 l-0.2 -0.08 c-0.12 -0.08 -0.2 -0.08 -0.28 -0.12 l-0.28 -0.12 c-0.08 0 -0.2 -0.04 -0.28 -0.04 l-0.04 0.28 c0.08 0.04 0.16 0.04 0.24 0.08 l0.28 0.08 l0.12 0.04 c0.04 0.04 0.08 0.04 0.12 0.08 l0.2 0.08 c0.12 0.08 0.24 0.2 0.36 0.32 c0.04 0.04 0.08 0.12 0.12 0.16 l0.16 0.2 c0.16 0.32 0.28 0.68 0.36 1.04 c0.2 0.76 0.2 1.6 0.08 2.48 c0 0 -0.24 0 -0.56 -0.04 c-0.36 -0.04 -0.8 -0.08 -1.16 -0.24 l0 -0.2 c0.04 -0.16 0 -0.32 0.04 -0.64 c-0.04 -0.12 -0.04 -0.28 -0.04 -0.44 c-0.04 -0.08 -0.04 -0.16 -0.04 -0.28 c-0.04 -0.08 -0.04 -0.16 -0.08 -0.24 c0 -0.04 -0.04 -0.08 -0.04 -0.12 s0 -0.08 -0.04 -0.12 c0 -0.04 -0.04 -0.08 -0.04 -0.12 c0 0 -0.04 -0.04 -0.04 -0.08 l-0.04 -0.04 l0 0 l0 0 s0.08 0.04 -0.04 -0.04 c-0.04 -0.04 -0.12 -0.04 -0.16 -0.08 l-0.12 0 c-0.04 -0.04 -0.04 -0.04 -0.08 -0.04 s-0.08 -0.04 -0.12 -0.04 l-0.08 0 c-0.16 -0.04 -0.28 -0.04 -0.44 0 c-0.2 0 -0.4 0.08 -0.6 0.16 c-0.24 0.12 -0.52 0.28 -0.8 0.48 c-0.28 0.24 -0.6 0.48 -0.92 0.8 c-0.6 0.64 -1.2 1.44 -1.8 2.36 c-0.56 0.92 -1.08 1.92 -1.56 2.92 c-0.24 0.52 -0.48 1.04 -0.68 1.56 c-0.12 0.28 -0.2 0.52 -0.28 0.76 c-0.12 0.28 -0.2 0.56 -0.32 0.8 c-0.72 2.12 -1.24 4.08 -1.48 5.64 c-0.08 0.68 -0.16 1.36 -0.16 2 c0 0.68 0.08 1.28 0.2 1.76 c0.04 0.04 0.04 0.12 0.08 0.16 c0 0.04 0.04 0.08 0.04 0.12 c0.04 0.04 0.04 0.12 0.08 0.16 c0 0.04 0.04 0.04 0.04 0.08 c0.04 0.04 0.08 0.08 0.08 0.12 c0.04 0 0.04 0.04 0.08 0.04 c0.04 0.04 0.04 0.12 0.12 0.12 c0 0.04 0.04 0.04 0.04 0.04 c0.04 0.04 0.08 0.04 0.12 0.04 c0 0.04 0 0.04 0.04 0.04 l0.04 0.04 c0.04 0 0.08 0 0.12 0.04 l0.12 0 c0.04 0.04 0.08 0.04 0.12 0.04 c0.12 0.04 0.24 0.04 0.36 0.04 l0.4 0 c0.04 0.04 0.12 0 0.16 0 l0.16 0 c0.12 -0.04 0.28 -0.04 0.4 -0.08 c0.16 -0.04 0.28 -0.08 0.44 -0.08 c0.6 -0.16 1.2 -0.4 1.76 -0.64 s1.12 -0.56 1.6 -0.8 c0.44 -0.28 0.88 -0.56 1.24 -0.8 c0 -0.04 0.04 -0.04 0.04 -0.04 c0.04 -0.08 0.04 -0.12 0.04 -0.2 c0.12 -0.28 0.2 -0.6 0.28 -0.92 l0.08 -0.24 l0.04 -0.2 l0.12 -0.36 l0.04 -0.08 l0 0 l0 0 l0 -0.04 l0.04 -0.04 c0 -0.04 0.04 -0.04 0.04 -0.08 c0.04 -0.08 0.08 -0.12 0.08 -0.2 c0 -0.04 0 -0.08 -0.04 -0.08 l-0.16 0 c-0.08 0.04 -0.16 0.04 -0.24 0.04 l0 0 l-0.04 0 l0 0 l0 0 l-0.04 0 c-0.16 0 -0.28 0 -0.44 -0.04 c-0.28 0 -0.56 0 -0.88 -0.04 c-0.56 0 -1.12 -0.08 -1.6 -0.16 c-0.32 -0.04 -0.64 -0.28 -0.8 -0.56 c-0.2 -0.32 -0.2 -0.72 -0.08 -1.08 l0.68 -2.08 c0.12 -0.4 0.28 -0.72 0.48 -0.92 c0.16 -0.24 0.36 -0.36 0.56 -0.32 c0.32 0.04 0.8 0.08 1.4 0.12 c0.32 0 0.64 0.04 1 0.04 c0.16 0 0.32 0.04 0.44 0.04 l0.52 0 c0.32 0.04 0.68 0 1.04 0 c0.76 -0.04 1.44 0.04 2 0.2 c0.28 0.12 0.48 0.2 0.72 0.32 c0.2 0.12 0.4 0.28 0.6 0.48 c0.12 0.08 0.2 0.2 0.28 0.32 s0.16 0.24 0.2 0.36 c0.08 0.12 0.12 0.24 0.12 0.36 c0.04 0.12 0.08 0.2 0.08 0.32 c0.04 0.28 0.08 0.52 0.08 0.8 c-0.04 0.32 -0.08 0.6 -0.12 0.92 c0 0.08 -0.04 0.2 -0.08 0.32 c-0.04 0.08 -0.08 0.2 -0.08 0.28 c-0.08 0.2 -0.16 0.44 -0.2 0.64 c-0.12 0.44 -0.28 0.88 -0.4 1.32 c-0.04 0.28 -0.12 0.52 -0.16 0.8 c-0.08 0.24 -0.12 0.48 -0.16 0.72 c-0.2 1 -0.36 2 -0.48 2.88 c-0.08 0.88 -0.12 1.64 -0.16 2.16 z M71.95200000000001 30.36 c-0.8 0.08 -1.72 0.12 -2.56 0.2 c-1.32 2.96 -2.52 6.28 -3.08 8.16 c-0.28 0.88 -1.12 1.4 -1.92 1.16 l-2.12 -0.64 c-0.76 -0.24 -1.16 -1.16 -0.88 -2.08 c0.48 -1.44 1.24 -3.76 2.24 -6.24 s2.2 -5.16 3.32 -7.48 c1.36 -2.88 3.32 -6.56 5 -9.52 c0.44 -0.76 0.8 -1.44 1.16 -2.08 c0.4 -0.6 0.72 -1.16 1 -1.64 c0.56 -0.92 0.88 -1.48 0.88 -1.48 s0.88 -0.04 1.48 0.52 c0.56 0.52 0.6 0.76 1.08 1 s0.68 0.52 0.68 0.52 l-0.48 0.72 l0.44 0.08 c0.08 -0.08 0.16 -0.16 0.2 -0.24 c0 0 0.84 0.4 1.4 1.04 c0 0 -0.04 0.04 -0.12 0.16 c0.08 0.2 0.12 0.4 0.12 0.64 c-0.08 0.56 -0.12 1.32 -0.16 2.24 c0 0.88 0 1.92 0.04 3.04 s0.08 2.32 0.12 3.52 c0 1.24 -0.04 2.48 -0.08 3.64 c-0.08 1.44 -0.24 3.08 -0.4 4.68 c-0.2 1.6 -0.4 3.2 -0.52 4.6 s-0.16 2.6 -0.2 3.44 l0 1 l0 0.36 s-0.16 0.08 -0.44 0.2 c-0.28 0.08 -0.68 0.16 -1.04 0.08 c-0.8 -0.12 -0.96 -0.24 -1.48 -0.2 s-0.84 -0.04 -0.84 -0.04 c0.04 -1.44 0.2 -2.88 0.4 -4.28 l-0.32 0 c-0.2 1.28 -0.4 2.6 -0.52 3.92 c0 0 -0.24 0.04 -0.56 0 c-0.36 0 -0.76 0 -1.16 -0.12 c0 0 0 -0.8 0.12 -2 c0.12 -1.24 0.36 -2.88 0.64 -4.64 c0.12 -0.76 0.24 -1.52 0.4 -2.28 c-0.72 0 -1.36 0 -1.84 0.04 z M74.59200000000001 20.52 c-0.6 1.04 -1.2 2.08 -1.76 3.12 c-0.28 0.48 -0.56 1 -0.84 1.48 c0.24 0 0.44 -0.04 0.64 -0.08 c0.56 -0.04 1.2 -0.12 1.88 -0.2 c0.04 -0.72 0.08 -1.36 0.08 -1.96 c0.04 -0.72 0.04 -1.52 0 -2.36 z M97.69600000000001 27.32 c-0.92 0.72 -1.96 1.28 -3 1.72 c-0.2 0.04 -0.4 0.12 -0.6 0.2 c0.48 0.6 0.96 1.2 1.4 1.76 c0.92 1.08 2.16 2.44 3.28 3.4 c0.52 0.52 1.04 0.92 1.4 1.24 c0.36 0.28 0.6 0.44 0.6 0.44 s-0.32 0.72 -0.88 1.28 c-0.52 0.56 -0.72 0.64 -1.04 1.04 s-0.56 0.64 -0.56 0.64 c-0.56 -0.56 -1.12 -1.12 -1.64 -1.72 l-0.2 0.24 c0.44 0.56 0.92 1.12 1.4 1.68 c0 0 -0.56 0.76 -1.16 1.28 c0 0 -0.08 -0.08 -0.24 -0.2 c-0.12 -0.16 -0.32 -0.32 -0.56 -0.6 c-0.24 -0.24 -0.52 -0.52 -0.8 -0.84 c-0.16 -0.2 -0.32 -0.36 -0.48 -0.56 c-0.16 -0.16 -0.32 -0.36 -0.52 -0.56 c-0.64 -0.8 -1.36 -1.68 -2 -2.48 c-0.6 -0.84 -1.16 -1.64 -1.6 -2.2 c-0.56 -0.8 -1.24 -1.72 -1.84 -2.52 c-0.2 1.32 -0.4 2.68 -0.56 3.88 c-0.08 0.72 -0.16 1.4 -0.24 2 c-0.04 0.6 -0.08 1.16 -0.12 1.6 c-0.08 0.88 -0.08 1.44 -0.08 1.44 s-0.2 0.08 -0.48 0.16 c-0.32 0.08 -0.68 0.12 -1.08 0.04 c-0.76 -0.2 -0.92 -0.36 -1.44 -0.32 c-0.52 0 -0.84 -0.12 -0.84 -0.12 c0.12 -0.72 0.16 -1.44 0.28 -2.16 l0.16 -1.08 l0.2 -1.08 l-0.32 0 l-0.2 0.96 l-0.16 1 c-0.08 0.32 -0.16 0.64 -0.2 0.96 l-0.16 1 s-0.96 0.04 -1.72 -0.24 c0 0 0.04 -0.2 0.08 -0.52 c0 -0.2 0.04 -0.4 0.08 -0.64 c0 -0.24 0.04 -0.52 0.12 -0.8 c0.04 -0.32 0.08 -0.64 0.12 -1 c0.08 -0.36 0.12 -0.72 0.2 -1.12 c0.12 -0.8 0.32 -1.68 0.48 -2.56 c0.36 -1.8 0.8 -3.72 1.2 -5.52 s0.8 -3.44 1.08 -4.72 c0.76 -3.4 1.64 -7.72 1.96 -9.96 c0.12 -0.76 0.88 -1.32 1.68 -1.2 l0.72 0.12 c0.68 -0.32 1.48 -0.6 2.44 -0.84 c0.64 -0.16 1.32 -0.28 2.12 -0.4 c0.4 -0.04 0.84 -0.08 1.36 -0.08 c0.24 0 0.52 0.04 0.8 0.04 c0.08 0.04 0.16 0.04 0.24 0.04 c0.12 0 0.2 0.04 0.28 0.04 c0.16 0.04 0.36 0.08 0.52 0.16 c0.2 0.04 0.44 0.16 0.6 0.24 c0.08 0 0.12 0.04 0.16 0.04 c0.08 0.04 0.12 0.08 0.16 0.08 c0.08 0.08 0.2 0.12 0.28 0.16 c0.12 0.08 0.24 0.12 0.32 0.2 s0.2 0.12 0.28 0.2 s0.2 0.16 0.28 0.24 s0.16 0.16 0.28 0.24 c0.68 0.64 1.2 1.44 1.6 2.28 s0.64 1.68 0.84 2.56 c0.16 0.84 0.24 1.72 0.2 2.56 c0 0.28 0 0.52 -0.04 0.8 c0 0.24 -0.04 0.52 -0.08 0.8 c-0.12 0.56 -0.24 1.08 -0.4 1.64 c-0.2 0.52 -0.44 1.08 -0.68 1.6 c-0.28 0.48 -0.56 1 -0.88 1.48 c-0.68 0.96 -1.52 1.84 -2.4 2.56 z M91.69600000000001 26 c0.28 0 0.56 -0.04 0.84 -0.08 l-0.08 -0.28 c-0.36 0.04 -0.68 0.04 -1.04 0 c0.08 0.12 0.16 0.2 0.28 0.36 z M89.81600000000002 25.68 c0.16 -0.12 0.32 -0.2 0.48 -0.28 c-0.24 -0.04 -0.44 -0.16 -0.64 -0.24 c0 0.04 -0.04 0.12 -0.04 0.2 s-0.04 0.12 -0.04 0.2 z M93.85600000000001 23.16 c0.16 -0.08 0.28 -0.2 0.44 -0.28 c0.12 -0.12 0.28 -0.2 0.4 -0.32 c0.16 -0.12 0.28 -0.24 0.4 -0.36 c0.12 -0.16 0.28 -0.28 0.4 -0.4 c0.12 -0.16 0.2 -0.32 0.32 -0.44 c0.12 -0.16 0.24 -0.32 0.32 -0.48 l0.24 -0.48 l0.24 -0.48 c0.12 -0.32 0.2 -0.64 0.24 -0.96 c0.04 -0.08 0.04 -0.16 0.04 -0.24 c0.04 -0.08 0.04 -0.16 0.04 -0.24 l0 -0.24 c0 -0.08 0.04 -0.16 0.04 -0.24 c0 -0.64 -0.12 -1.24 -0.24 -1.72 c-0.16 -0.52 -0.36 -1.04 -0.6 -1.32 c-0.08 -0.08 -0.12 -0.16 -0.16 -0.16 c-0.04 -0.04 -0.04 -0.08 -0.08 -0.08 c0 -0.04 -0.04 -0.04 -0.08 -0.04 l0 -0.04 l-0.04 0 c-0.04 0 -0.04 -0.04 -0.04 -0.04 c-0.04 -0.04 -0.04 0 -0.08 -0.04 l0 0 l-0.08 0 l-0.24 0 c-0.2 -0.04 -0.44 0 -0.68 0 c-0.48 0.08 -0.96 0.16 -1.44 0.28 c-0.64 0.16 -1.2 0.32 -1.6 0.52 c-0.2 0.92 -0.36 1.92 -0.6 3 c-0.32 1.6 -0.68 3.32 -1 5 c0.04 0 0.04 0 0.08 0.04 c0.04 0 0.04 0.04 0.12 0.04 c0.04 0.04 0.08 0.04 0.12 0.08 c0.08 0 0.12 0.04 0.2 0.08 c0.04 0 0.12 0.04 0.2 0.04 c0.04 0.04 0.08 0.04 0.12 0.04 s0.08 0.04 0.12 0.04 c0.32 0.08 0.72 0.08 1.24 0.04 c0.48 -0.08 1.04 -0.28 1.64 -0.6 z M103.28000000000002 31.84 c0.36 -1.84 0.76 -3.8 1.2 -5.68 c0.4 -1.84 0.8 -3.56 1.08 -4.84 c0.76 -3.48 1.64 -7.96 1.96 -10.24 c0.12 -0.84 0.88 -1.4 1.68 -1.28 l1.28 0.2 c0.68 -0.16 1.56 -0.28 2.52 -0.36 c1.2 -0.12 2.48 -0.16 3.6 -0.2 c1.32 0 3.08 -0.04 4.48 -0.08 c0.36 0 0.68 0 0.96 -0.04 c0.32 0 0.56 0 0.76 -0.04 c0.44 0 0.68 -0.04 0.68 -0.04 s0.24 0.76 0.16 1.52 c-0.04 0.8 -0.12 1 -0.08 1.52 c0 0.52 -0.04 0.84 -0.04 0.84 c-0.68 -0.04 -1.36 -0.08 -2.04 -0.16 l0 0.28 c0.6 0.12 1.24 0.24 1.88 0.32 c0 0 0.04 0.96 -0.08 1.76 l-0.24 0 c-0.16 -0.04 -0.4 -0.04 -0.68 -0.08 c-0.6 -0.04 -1.36 -0.12 -2.2 -0.2 c-1.72 -0.16 -3.64 -0.32 -4.8 -0.32 c-0.8 0 -1.64 0.04 -2.44 0.16 c-0.32 0 -0.6 0.04 -0.84 0.08 c-0.16 0.88 -0.36 1.84 -0.52 2.84 c-0.28 1.4 -0.6 2.84 -0.88 4.32 c0.24 0 0.52 0 0.76 -0.04 c0.92 0 1.92 -0.04 2.84 -0.08 c1.08 -0.08 2.56 -0.2 3.76 -0.32 c1.24 -0.12 2.2 -0.2 2.2 -0.2 s0.16 0.76 0.12 1.52 c-0.04 0.8 -0.12 1 -0.08 1.52 c0 0.52 -0.04 0.84 -0.04 0.84 c-0.56 -0.04 -1.12 -0.08 -1.72 -0.12 l0 0.32 c0.56 0.08 1.08 0.16 1.6 0.24 c0 0 0.04 0.96 -0.04 1.76 c0 0 -1.12 -0.08 -2.56 -0.16 s-3.16 -0.12 -4.24 -0.12 c-1.12 0 -2.56 0.04 -3.6 0 c-0.4 2.32 -0.84 4.92 -1.08 7.12 c-0.08 0.72 -0.16 1.4 -0.24 2.04 c-0.04 0.6 -0.08 1.16 -0.12 1.64 c-0.08 0.92 -0.08 1.48 -0.08 1.48 s-0.2 0.08 -0.48 0.16 c-0.32 0.08 -0.68 0.16 -1.08 0.04 c-0.76 -0.16 -0.92 -0.32 -1.44 -0.32 s-0.84 -0.12 -0.84 -0.12 c0.12 -0.76 0.16 -1.48 0.28 -2.2 l0.16 -1.12 l0.16 -1.12 l-0.28 0 l-0.2 1 l-0.2 1 c-0.04 0.36 -0.12 0.68 -0.16 1.04 l-0.16 1.04 s-0.96 0 -1.72 -0.28 c0 0 0.04 -0.2 0.08 -0.52 c0 -0.2 0.04 -0.4 0.04 -0.64 l0.12 -0.84 c0.08 -0.32 0.12 -0.68 0.16 -1.04 c0.08 -0.36 0.12 -0.76 0.2 -1.16 c0.12 -0.8 0.28 -1.68 0.48 -2.64 z M133.66400000000002 39.8 c-0.8 0.04 -1.64 0.08 -2.44 0.08 c-0.8 -0.04 -1.56 -0.04 -2.12 -0.04 c-0.76 -0.04 -1.68 -0.08 -2.56 -0.2 c-0.84 -0.08 -1.72 -0.28 -2.36 -0.48 c-0.04 0 -0.08 -0.04 -0.16 -0.04 c-0.48 0 -0.8 -0.12 -0.8 -0.12 c0.16 -1.44 0.36 -2.84 0.6 -4.2 l-0.28 -0.04 c-0.08 0.32 -0.16 0.64 -0.2 0.96 l-0.2 0.96 c-0.12 0.64 -0.2 1.28 -0.32 1.96 c0 0 -0.96 0 -1.72 -0.24 c0 0 0.04 -0.2 0.08 -0.56 c0 -0.16 0.04 -0.36 0.04 -0.6 c0.04 -0.24 0.08 -0.48 0.12 -0.8 c0.04 -0.28 0.12 -0.6 0.16 -0.96 s0.12 -0.72 0.2 -1.12 c0.12 -0.76 0.28 -1.6 0.44 -2.48 c0.36 -1.76 0.8 -3.68 1.24 -5.44 c0.44 -1.72 0.84 -3.36 1.12 -4.6 c0.36 -1.64 0.8 -3.52 1.12 -5.28 c0.2 -0.84 0.32 -1.68 0.48 -2.44 c0.12 -0.76 0.24 -1.4 0.32 -1.96 c0.08 -0.4 0.28 -0.76 0.64 -0.96 c0 -0.12 0 -0.24 0.04 -0.36 c0.08 -0.12 0.16 -0.2 0.24 -0.28 c0.68 -0.36 1.84 -0.84 3.12 -1.04 c1.24 -0.24 2.56 -0.24 3.6 -0.2 c1.32 0 2.96 0.16 4.12 0.16 c0.6 0 1.08 -0.04 1.4 -0.04 c0.32 -0.04 0.52 -0.08 0.52 -0.08 s0.04 0.2 0.08 0.48 s0.12 0.64 0.12 1.04 c-0.04 0.76 -0.08 0.96 -0.04 1.44 c0.08 0.52 0.04 0.84 0.04 0.84 c-0.68 0 -1.32 -0.04 -1.96 -0.12 l0 0.28 c0.6 0.12 1.2 0.24 1.8 0.32 c0 0 0.04 0.2 0.04 0.56 c0 0.32 0.04 0.76 0 1.16 l-0.28 0 c-0.2 0 -0.44 -0.04 -0.72 -0.04 c-0.6 -0.04 -1.4 -0.16 -2.2 -0.28 s-1.6 -0.28 -2.36 -0.4 c-0.72 -0.08 -1.36 -0.16 -1.84 -0.16 c-0.32 0 -0.64 0 -0.96 0.04 c-0.2 0 -0.4 0.04 -0.6 0.08 c-0.2 1.16 -0.44 2.52 -0.76 4 c-0.24 1.16 -0.48 2.36 -0.76 3.56 c0.28 0 0.52 0.04 0.76 0.04 l1.32 0.12 c0.2 0.04 0.36 0.04 0.52 0.04 l0.2 0 c0.08 0 0.16 -0.04 0.24 -0.04 c0.48 0 1.04 -0.04 1.6 -0.12 l1.8 -0.12 c0.56 -0.04 1.04 -0.08 1.4 -0.08 c0.36 -0.04 0.6 -0.04 0.6 -0.04 s0.12 0.76 0.04 1.52 s-0.16 0.96 -0.16 1.48 s-0.04 0.84 -0.04 0.84 c-0.52 -0.08 -1 -0.12 -1.52 -0.2 l0 0.32 c0.48 0.08 0.92 0.2 1.36 0.28 c0 0 0 0.96 -0.12 1.76 c0 0 -0.24 -0.04 -0.6 -0.08 c-0.4 -0.04 -0.96 -0.12 -1.56 -0.16 s-1.28 -0.08 -1.96 -0.12 c-0.36 0 -0.68 0 -0.96 -0.04 c-0.44 0 -0.8 -0.04 -1.08 -0.08 c-0.36 -0.04 -0.72 -0.08 -1.04 -0.12 s-0.64 -0.08 -0.88 -0.08 c-0.48 0 -0.72 0.04 -0.76 0.08 c0 0 0 -0.04 -0.04 -0.12 c-0.04 -0.04 -0.08 -0.16 -0.12 -0.24 c-0.48 2.32 -0.96 5.04 -1.24 7.32 l0 0.28 l0.12 0 c0.8 0.08 1.76 0.08 2.6 0 c1 -0.04 2.4 -0.24 3.44 -0.48 c0.56 -0.08 1 -0.2 1.32 -0.32 c0.16 -0.04 0.24 -0.08 0.32 -0.08 c0.08 -0.04 0.12 -0.04 0.12 -0.04 s0.08 0.16 0.2 0.44 c0.08 0.24 0.2 0.6 0.28 1 c0.16 0.76 0.12 0.92 0.28 1.44 c0.12 0.48 0.16 0.8 0.16 0.8 c-0.6 0.12 -1.2 0.16 -1.8 0.24 l0.04 0.28 c0.56 0 1.16 0 1.72 -0.04 c0 0 0.08 0.24 0.16 0.56 s0.16 0.76 0.2 1.16 c0 0 -0.08 0 -0.24 0.04 c-0.16 0 -0.4 0.04 -0.68 0.08 c-0.28 0 -0.56 0.04 -0.92 0.08 c-0.36 0 -0.72 0.04 -1.12 0.04 z M160.92800000000003 10.399999999999999 c0.12 0.16 0.24 0.36 0.28 0.56 c0.08 0.24 0.08 0.44 0.08 0.68 c-0.16 1.56 -0.52 3.92 -1.16 6.44 s-1.48 5.24 -2.32 7.56 c-0.12 0.36 -0.24 0.76 -0.4 1.16 c-0.16 0.36 -0.28 0.76 -0.44 1.16 c-0.32 0.8 -0.68 1.64 -1 2.48 c-0.72 1.68 -1.48 3.36 -2.2 4.84 c-0.76 1.48 -1.48 2.8 -2 3.72 s-0.88 1.48 -0.88 1.48 s-0.2 0 -0.52 -0.04 c-0.28 -0.08 -0.64 -0.2 -0.92 -0.48 c-0.56 -0.52 -0.64 -0.76 -1.12 -1 c-0.44 -0.24 -0.68 -0.52 -0.68 -0.52 c0.4 -0.56 0.8 -1.16 1.16 -1.72 c-0.04 0 -0.12 0.04 -0.2 0.08 c-0.16 0.08 -0.28 0.12 -0.44 0.16 c-0.2 0.32 -0.44 0.64 -0.68 0.96 c0 0 -0.6 -0.32 -1.12 -0.76 c-0.24 0.04 -0.52 0.12 -0.76 0.12 c0 0 -0.04 -0.2 -0.16 -0.52 c-0.04 -0.16 -0.08 -0.36 -0.16 -0.6 c-0.04 -0.24 -0.12 -0.52 -0.2 -0.8 c-0.04 -0.28 -0.12 -0.6 -0.2 -0.96 s-0.16 -0.72 -0.24 -1.12 c-0.16 -0.76 -0.28 -1.6 -0.44 -2.52 c-0.28 -1.76 -0.52 -3.68 -0.72 -5.48 c-0.16 -1.8 -0.32 -3.44 -0.48 -4.68 c-0.16 -1.64 -0.4 -3.52 -0.68 -5.24 c-0.08 -0.44 -0.12 -0.88 -0.2 -1.28 s-0.16 -0.76 -0.2 -1.16 c-0.16 -0.72 -0.28 -1.36 -0.4 -1.88 c-0.2 -0.72 0.32 -1.48 1.12 -1.68 l2.12 -0.56 c0.8 -0.16 1.56 0.32 1.76 1.12 c0.28 1.32 0.72 3.4 1.04 5.64 c0.32 2.28 0.64 4.76 0.92 6.92 c0.32 2.4 0.8 5.48 1.4 8 c0.72 -1.44 1.48 -3 2.12 -4.48 c0.2 -0.44 0.36 -0.88 0.56 -1.28 c0.16 -0.44 0.32 -0.84 0.44 -1.24 c0.32 -0.8 0.6 -1.52 0.8 -2.16 c0.56 -1.72 1.16 -3.68 1.6 -5.52 c0.4 -1.84 0.64 -3.52 0.76 -4.64 c0 -0.2 0.08 -0.4 0.16 -0.56 s0.2 -0.32 0.36 -0.44 c0.28 -0.24 0.64 -0.4 1.04 -0.4 l2.2 0.12 c0.4 0 0.76 0.2 1 0.52 z M146.80800000000002 32.92 l-0.28 0.08 l0.16 0.96 l0.16 0.96 l0.12 0.6 c0.08 -0.08 0.12 -0.16 0.16 -0.24 s0.12 -0.16 0.16 -0.24 l-0.04 -0.08 l-0.24 -1.04 c-0.08 -0.32 -0.16 -0.68 -0.2 -1 z M171.59200000000004 39.8 c-0.8 0.04 -1.64 0.08 -2.44 0.08 c-0.8 -0.04 -1.56 -0.04 -2.12 -0.04 c-0.76 -0.04 -1.68 -0.08 -2.56 -0.2 c-0.84 -0.08 -1.72 -0.28 -2.36 -0.48 c-0.04 0 -0.08 -0.04 -0.16 -0.04 c-0.48 0 -0.8 -0.12 -0.8 -0.12 c0.16 -1.44 0.36 -2.84 0.6 -4.2 l-0.28 -0.04 c-0.08 0.32 -0.16 0.64 -0.2 0.96 l-0.2 0.96 c-0.12 0.64 -0.2 1.28 -0.32 1.96 c0 0 -0.96 0 -1.72 -0.24 c0 0 0.04 -0.2 0.08 -0.56 c0 -0.16 0.04 -0.36 0.04 -0.6 c0.04 -0.24 0.08 -0.48 0.12 -0.8 c0.04 -0.28 0.12 -0.6 0.16 -0.96 s0.12 -0.72 0.2 -1.12 c0.12 -0.76 0.28 -1.6 0.44 -2.48 c0.36 -1.76 0.8 -3.68 1.24 -5.44 c0.44 -1.72 0.84 -3.36 1.12 -4.6 c0.36 -1.64 0.8 -3.52 1.12 -5.28 c0.2 -0.84 0.32 -1.68 0.48 -2.44 c0.12 -0.76 0.24 -1.4 0.32 -1.96 c0.08 -0.4 0.28 -0.76 0.64 -0.96 c0 -0.12 0 -0.24 0.04 -0.36 c0.08 -0.12 0.16 -0.2 0.24 -0.28 c0.68 -0.36 1.84 -0.84 3.12 -1.04 c1.24 -0.24 2.56 -0.24 3.6 -0.2 c1.32 0 2.96 0.16 4.12 0.16 c0.6 0 1.08 -0.04 1.4 -0.04 c0.32 -0.04 0.52 -0.08 0.52 -0.08 s0.04 0.2 0.08 0.48 s0.12 0.64 0.12 1.04 c-0.04 0.76 -0.08 0.96 -0.04 1.44 c0.08 0.52 0.04 0.84 0.04 0.84 c-0.68 0 -1.32 -0.04 -1.96 -0.12 l0 0.28 c0.6 0.12 1.2 0.24 1.8 0.32 c0 0 0.04 0.2 0.04 0.56 c0 0.32 0.04 0.76 0 1.16 l-0.28 0 c-0.2 0 -0.44 -0.04 -0.72 -0.04 c-0.6 -0.04 -1.4 -0.16 -2.2 -0.28 s-1.6 -0.28 -2.36 -0.4 c-0.72 -0.08 -1.36 -0.16 -1.84 -0.16 c-0.32 0 -0.64 0 -0.96 0.04 c-0.2 0 -0.4 0.04 -0.6 0.08 c-0.2 1.16 -0.44 2.52 -0.76 4 c-0.24 1.16 -0.48 2.36 -0.76 3.56 c0.28 0 0.52 0.04 0.76 0.04 l1.32 0.12 c0.2 0.04 0.36 0.04 0.52 0.04 l0.2 0 c0.08 0 0.16 -0.04 0.24 -0.04 c0.48 0 1.04 -0.04 1.6 -0.12 l1.8 -0.12 c0.56 -0.04 1.04 -0.08 1.4 -0.08 c0.36 -0.04 0.6 -0.04 0.6 -0.04 s0.12 0.76 0.04 1.52 s-0.16 0.96 -0.16 1.48 s-0.04 0.84 -0.04 0.84 c-0.52 -0.08 -1 -0.12 -1.52 -0.2 l0 0.32 c0.48 0.08 0.92 0.2 1.36 0.28 c0 0 0 0.96 -0.12 1.76 c0 0 -0.24 -0.04 -0.6 -0.08 c-0.4 -0.04 -0.96 -0.12 -1.56 -0.16 s-1.28 -0.08 -1.96 -0.12 c-0.36 0 -0.68 0 -0.96 -0.04 c-0.44 0 -0.8 -0.04 -1.08 -0.08 c-0.36 -0.04 -0.72 -0.08 -1.04 -0.12 s-0.64 -0.08 -0.88 -0.08 c-0.48 0 -0.72 0.04 -0.76 0.08 c0 0 0 -0.04 -0.04 -0.12 c-0.04 -0.04 -0.08 -0.16 -0.12 -0.24 c-0.48 2.32 -0.96 5.04 -1.24 7.32 l0 0.28 l0.12 0 c0.8 0.08 1.76 0.08 2.6 0 c1 -0.04 2.4 -0.24 3.44 -0.48 c0.56 -0.08 1 -0.2 1.32 -0.32 c0.16 -0.04 0.24 -0.08 0.32 -0.08 c0.08 -0.04 0.12 -0.04 0.12 -0.04 s0.08 0.16 0.2 0.44 c0.08 0.24 0.2 0.6 0.28 1 c0.16 0.76 0.12 0.92 0.28 1.44 c0.12 0.48 0.16 0.8 0.16 0.8 c-0.6 0.12 -1.2 0.16 -1.8 0.24 l0.04 0.28 c0.56 0 1.16 0 1.72 -0.04 c0 0 0.08 0.24 0.16 0.56 s0.16 0.76 0.2 1.16 c0 0 -0.08 0 -0.24 0.04 c-0.16 0 -0.4 0.04 -0.68 0.08 c-0.28 0 -0.56 0.04 -0.92 0.08 c-0.36 0 -0.72 0.04 -1.12 0.04 z M192.85600000000005 27.32 c-0.92 0.72 -1.96 1.28 -3 1.72 c-0.2 0.04 -0.4 0.12 -0.6 0.2 c0.48 0.6 0.96 1.2 1.4 1.76 c0.92 1.08 2.16 2.44 3.28 3.4 c0.52 0.52 1.04 0.92 1.4 1.24 c0.36 0.28 0.6 0.44 0.6 0.44 s-0.32 0.72 -0.88 1.28 c-0.52 0.56 -0.72 0.64 -1.04 1.04 s-0.56 0.64 -0.56 0.64 c-0.56 -0.56 -1.12 -1.12 -1.64 -1.72 l-0.2 0.24 c0.44 0.56 0.92 1.12 1.4 1.68 c0 0 -0.56 0.76 -1.16 1.28 c0 0 -0.08 -0.08 -0.24 -0.2 c-0.12 -0.16 -0.32 -0.32 -0.56 -0.6 c-0.24 -0.24 -0.52 -0.52 -0.8 -0.84 c-0.16 -0.2 -0.32 -0.36 -0.48 -0.56 c-0.16 -0.16 -0.32 -0.36 -0.52 -0.56 c-0.64 -0.8 -1.36 -1.68 -2 -2.48 c-0.6 -0.84 -1.16 -1.64 -1.6 -2.2 c-0.56 -0.8 -1.24 -1.72 -1.84 -2.52 c-0.2 1.32 -0.4 2.68 -0.56 3.88 c-0.08 0.72 -0.16 1.4 -0.24 2 c-0.04 0.6 -0.08 1.16 -0.12 1.6 c-0.08 0.88 -0.08 1.44 -0.08 1.44 s-0.2 0.08 -0.48 0.16 c-0.32 0.08 -0.68 0.12 -1.08 0.04 c-0.76 -0.2 -0.92 -0.36 -1.44 -0.32 c-0.52 0 -0.84 -0.12 -0.84 -0.12 c0.12 -0.72 0.16 -1.44 0.28 -2.16 l0.16 -1.08 l0.2 -1.08 l-0.32 0 l-0.2 0.96 l-0.16 1 c-0.08 0.32 -0.16 0.64 -0.2 0.96 l-0.16 1 s-0.96 0.04 -1.72 -0.24 c0 0 0.04 -0.2 0.08 -0.52 c0 -0.2 0.04 -0.4 0.08 -0.64 c0 -0.24 0.04 -0.52 0.12 -0.8 c0.04 -0.32 0.08 -0.64 0.12 -1 c0.08 -0.36 0.12 -0.72 0.2 -1.12 c0.12 -0.8 0.32 -1.68 0.48 -2.56 c0.36 -1.8 0.8 -3.72 1.2 -5.52 s0.8 -3.44 1.08 -4.72 c0.76 -3.4 1.64 -7.72 1.96 -9.96 c0.12 -0.76 0.88 -1.32 1.68 -1.2 l0.72 0.12 c0.68 -0.32 1.48 -0.6 2.44 -0.84 c0.64 -0.16 1.32 -0.28 2.12 -0.4 c0.4 -0.04 0.84 -0.08 1.36 -0.08 c0.24 0 0.52 0.04 0.8 0.04 c0.08 0.04 0.16 0.04 0.24 0.04 c0.12 0 0.2 0.04 0.28 0.04 c0.16 0.04 0.36 0.08 0.52 0.16 c0.2 0.04 0.44 0.16 0.6 0.24 c0.08 0 0.12 0.04 0.16 0.04 c0.08 0.04 0.12 0.08 0.16 0.08 c0.08 0.08 0.2 0.12 0.28 0.16 c0.12 0.08 0.24 0.12 0.32 0.2 s0.2 0.12 0.28 0.2 s0.2 0.16 0.28 0.24 s0.16 0.16 0.28 0.24 c0.68 0.64 1.2 1.44 1.6 2.28 s0.64 1.68 0.84 2.56 c0.16 0.84 0.24 1.72 0.2 2.56 c0 0.28 0 0.52 -0.04 0.8 c0 0.24 -0.04 0.52 -0.08 0.8 c-0.12 0.56 -0.24 1.08 -0.4 1.64 c-0.2 0.52 -0.44 1.08 -0.68 1.6 c-0.28 0.48 -0.56 1 -0.88 1.48 c-0.68 0.96 -1.52 1.84 -2.4 2.56 z M186.85600000000005 26 c0.28 0 0.56 -0.04 0.84 -0.08 l-0.08 -0.28 c-0.36 0.04 -0.68 0.04 -1.04 0 c0.08 0.12 0.16 0.2 0.28 0.36 z M184.97600000000006 25.68 c0.16 -0.12 0.32 -0.2 0.48 -0.28 c-0.24 -0.04 -0.44 -0.16 -0.64 -0.24 c0 0.04 -0.04 0.12 -0.04 0.2 s-0.04 0.12 -0.04 0.2 z M189.01600000000005 23.16 c0.16 -0.08 0.28 -0.2 0.44 -0.28 c0.12 -0.12 0.28 -0.2 0.4 -0.32 c0.16 -0.12 0.28 -0.24 0.4 -0.36 c0.12 -0.16 0.28 -0.28 0.4 -0.4 c0.12 -0.16 0.2 -0.32 0.32 -0.44 c0.12 -0.16 0.24 -0.32 0.32 -0.48 l0.24 -0.48 l0.24 -0.48 c0.12 -0.32 0.2 -0.64 0.24 -0.96 c0.04 -0.08 0.04 -0.16 0.04 -0.24 c0.04 -0.08 0.04 -0.16 0.04 -0.24 l0 -0.24 c0 -0.08 0.04 -0.16 0.04 -0.24 c0 -0.64 -0.12 -1.24 -0.24 -1.72 c-0.16 -0.52 -0.36 -1.04 -0.6 -1.32 c-0.08 -0.08 -0.12 -0.16 -0.16 -0.16 c-0.04 -0.04 -0.04 -0.08 -0.08 -0.08 c0 -0.04 -0.04 -0.04 -0.08 -0.04 l0 -0.04 l-0.04 0 c-0.04 0 -0.04 -0.04 -0.04 -0.04 c-0.04 -0.04 -0.04 0 -0.08 -0.04 l0 0 l-0.08 0 l-0.24 0 c-0.2 -0.04 -0.44 0 -0.68 0 c-0.48 0.08 -0.96 0.16 -1.44 0.28 c-0.64 0.16 -1.2 0.32 -1.6 0.52 c-0.2 0.92 -0.36 1.92 -0.6 3 c-0.32 1.6 -0.68 3.32 -1 5 c0.04 0 0.04 0 0.08 0.04 c0.04 0 0.04 0.04 0.12 0.04 c0.04 0.04 0.08 0.04 0.12 0.08 c0.08 0 0.12 0.04 0.2 0.08 c0.04 0 0.12 0.04 0.2 0.04 c0.04 0.04 0.08 0.04 0.12 0.04 s0.08 0.04 0.12 0.04 c0.32 0.08 0.72 0.08 1.24 0.04 c0.48 -0.08 1.04 -0.28 1.64 -0.6 z"></path></g><g id="SvgjsG2412" featurekey="sloganFeature-0" transform="matrix(2.33867883738109,0,0,2.33867883738109,48.65005872297732,219.97442091869823)" fill="#118df0"><path d="M2.26 17.68 c-0.44 -0.82 0.68 -1.42 1.2 -0.6 c0.26 0.42 1.04 1.14 2.28 1.14 c0.52 0 1.82 -0.38 2 -1.86 c0.12 -0.9 -0.74 -1.78 -2.22 -2.52 c-2.08 -0.98 -3.66 -1.84 -3.66 -3.56 c0 -2.04 1.72 -3 3.56 -3 c1.66 0 2.58 1.02 2.9 1.54 c0.46 0.74 -0.54 1.46 -1.1 0.74 c-0.28 -0.36 -0.82 -0.96 -1.8 -0.96 c-1.1 0 -2.24 0.52 -2.24 1.68 c0 0.92 1.02 1.44 2.54 2.16 c1.78 0.88 3.64 1.74 3.36 4.08 c-0.22 1.84 -1.62 3.02 -3.34 3.02 c-1.3 0 -2.9 -0.7 -3.48 -1.86 z M13.44 15.86 l0 -7.86 c0 -0.42 0.34 -0.64 0.66 -0.64 c0.34 0 0.66 0.22 0.66 0.64 l0 7.86 c0 1.44 0.98 2.3 2.34 2.3 l0.5 0 c1.4 0 2.36 -0.98 2.36 -2.3 l0 -7.86 c0 -0.42 0.32 -0.64 0.66 -0.64 c0.32 0 0.66 0.22 0.66 0.64 l0 7.86 c0 2.06 -1.46 3.64 -3.68 3.64 l-0.5 0 c-2.22 0 -3.66 -1.54 -3.66 -3.64 z M25.900000000000002 15.879999999999999 l0 -4.82 c0 -2.88 1.58 -3.74 3.9 -3.74 c1.92 0 3.78 0.98 3.78 3 c0 0.44 -0.32 0.66 -0.66 0.66 s-0.68 -0.22 -0.68 -0.66 c0 -1.02 -1.12 -1.7 -2.44 -1.7 c-1.82 0 -2.58 0.74 -2.58 2.44 l0 4.82 c0 1.74 0.96 2.28 2.58 2.28 c1.92 0 2.6 -0.92 2.6 -2.7 l0 -0.84 l-1.8 0 c-0.42 0 -0.64 -0.32 -0.64 -0.66 s0.22 -0.68 0.64 -0.68 l2.5 0 c0.4 0 0.62 0.4 0.62 0.68 l0 1.5 c0 2.88 -1.12 4 -3.92 4 c-2.64 0 -3.9 -0.96 -3.9 -3.58 z M44.300000000000004 18.86 l-0.78 -2.54 l-3.72 0 l-0.74 2.5 c-0.26 0.86 -1.58 0.6 -1.3 -0.28 c1.04 -3.5 2.06 -7.06 3.08 -10.6 c0.12 -0.38 0.44 -0.58 0.76 -0.58 c0.3 0 0.62 0.2 0.74 0.58 l3.18 10.6 c0.22 0.76 -0.96 1.18 -1.22 0.32 z M41.64000000000001 10.06 l-1.44 4.92 l2.94 0 c-0.5 -1.68 -0.96 -3.12 -1.5 -4.92 z M51.300000000000004 15.9 l0 2.86 c0 0.44 -0.34 0.64 -0.66 0.64 c-0.34 0 -0.66 -0.2 -0.66 -0.64 l0 -10.74 c0 -0.4 0.22 -0.66 0.66 -0.66 l2.7 0 c0.76 0 3.16 0.22 3.16 2.92 l0 2.5 c0 1.52 -0.56 2.48 -1.84 2.9 l1.36 2.74 c0.28 0.54 -0.14 0.98 -0.58 0.98 c-0.24 0 -0.54 -0.16 -0.7 -0.5 l-1.46 -3 l-1.98 0 z M55.18 12.780000000000001 l0 -2.5 c0 -0.48 -0.18 -1.58 -1.84 -1.58 l-2.04 0 l0 5.86 l1.86 0 c0.98 0 2.02 -0.22 2.02 -1.78 z M68.84 18.76 l0 -10.76 c0 -0.48 0.38 -0.64 0.66 -0.64 l4.6 0 c0.44 0 0.66 0.32 0.66 0.66 s-0.22 0.68 -0.66 0.68 l-3.94 0 l0 3.88 l3.14 0 c0.44 0 0.68 0.34 0.68 0.68 s-0.24 0.68 -0.68 0.68 l-3.14 0 l0 4.82 c0 0.42 -0.34 0.64 -0.66 0.64 c-0.34 0 -0.66 -0.22 -0.66 -0.64 z M80.11999999999999 15.9 l0 2.86 c0 0.44 -0.34 0.64 -0.66 0.64 c-0.34 0 -0.66 -0.2 -0.66 -0.64 l0 -10.74 c0 -0.4 0.22 -0.66 0.66 -0.66 l2.7 0 c0.76 0 3.16 0.22 3.16 2.92 l0 2.5 c0 1.52 -0.56 2.48 -1.84 2.9 l1.36 2.74 c0.28 0.54 -0.14 0.98 -0.58 0.98 c-0.24 0 -0.54 -0.16 -0.7 -0.5 l-1.46 -3 l-1.98 0 z M84 12.780000000000001 l0 -2.5 c0 -0.48 -0.18 -1.58 -1.84 -1.58 l-2.04 0 l0 5.86 l1.86 0 c0.98 0 2.02 -0.22 2.02 -1.78 z M90.14 18.7 l0 -10.64 c0 -0.46 0.36 -0.7 0.7 -0.7 l4.6 0 c0.44 0 0.66 0.32 0.66 0.66 s-0.22 0.68 -0.66 0.68 l-3.96 0 l0 3.88 l3.14 0 c0.46 0 0.68 0.32 0.68 0.66 s-0.24 0.7 -0.68 0.7 l-3.14 0 l0 4.14 l3.96 0 c0.42 0 0.64 0.34 0.64 0.66 c0 0.34 -0.22 0.66 -0.64 0.66 l-4.6 0 c-0.34 0 -0.7 -0.12 -0.7 -0.7 z M100.66 18.7 l0 -10.64 c0 -0.46 0.36 -0.7 0.7 -0.7 l4.6 0 c0.44 0 0.66 0.32 0.66 0.66 s-0.22 0.68 -0.66 0.68 l-3.96 0 l0 3.88 l3.14 0 c0.46 0 0.68 0.32 0.68 0.66 s-0.24 0.7 -0.68 0.7 l-3.14 0 l0 4.14 l3.96 0 c0.42 0 0.64 0.34 0.64 0.66 c0 0.34 -0.22 0.66 -0.64 0.66 l-4.6 0 c-0.34 0 -0.7 -0.12 -0.7 -0.7 z"></path></g></svg>