<?xml version="1.0" encoding="UTF-8" standalone="no"?>
<!-- Created with Inkscape (http://www.inkscape.org/) -->

<svg
   width="35.888306mm"
   height="35.888306mm"
   viewBox="0 0 35.888306 35.888306"
   version="1.1"
   id="svg357"
   inkscape:version="1.2 (1:1.2.1+202207142221+cd75a1ee6d)"
   sodipodi:docname="icon.svg"
   xmlns:inkscape="http://www.inkscape.org/namespaces/inkscape"
   xmlns:sodipodi="http://sodipodi.sourceforge.net/DTD/sodipodi-0.dtd"
   xmlns="http://www.w3.org/2000/svg"
   xmlns:svg="http://www.w3.org/2000/svg">
  <sodipodi:namedview
     id="namedview359"
     pagecolor="#ffffff"
     bordercolor="#000000"
     borderopacity="0.25"
     inkscape:showpageshadow="2"
     inkscape:pageopacity="0.0"
     inkscape:pagecheckerboard="0"
     inkscape:deskcolor="#d1d1d1"
     inkscape:document-units="mm"
     showgrid="false"
     inkscape:zoom="0.75722503"
     inkscape:cx="-120.17564"
     inkscape:cy="341.37805"
     inkscape:window-width="2510"
     inkscape:window-height="1016"
     inkscape:window-x="50"
     inkscape:window-y="27"
     inkscape:window-maximized="1"
     inkscape:current-layer="layer1" />
  <defs
     id="defs354" />
  <g
     inkscape:label="Capa 1"
     inkscape:groupmode="layer"
     id="layer1"
     transform="translate(-110.63938,-58.227613)">
    <g
       id="SvgjsG2410"
       featurekey="symbolFeature-0"
       transform="matrix(0.28037738,0,0,0.28037738,110.63938,58.227613)"
       fill="#118df0">
      <title
         id="title255">89 Web Icon Set 45 expanded</title>
      <path
         d="M 64,128 A 64,64 0 1 0 0,64 64.07207,64.07207 0 0 0 64,128 Z M 64,4 A 60,60 0 1 1 4,64 60.06812,60.06812 0 0 1 64,4 Z"
         id="path257" />
      <path
         d="m 86,58 c 5.04688,0 9,-6.14941 9,-14 0,-7.85059 -3.95312,-14 -9,-14 -5.04688,0 -9,6.14941 -9,14 0,7.85059 3.95313,14 9,14 z m 0,-24 c 2.36523,0 5,4.10693 5,10 0,5.89307 -2.63477,10 -5,10 -2.36523,0 -5,-4.10693 -5,-10 0,-5.89307 2.63477,-10 5,-10 z"
         id="path259" />
      <path
         d="m 42,58 c 5.04688,0 9,-6.14941 9,-14 0,-7.85059 -3.95312,-14 -9,-14 -5.04688,0 -9,6.14941 -9,14 0,7.85059 3.95313,14 9,14 z m 0,-24 c 2.36523,0 5,4.10693 5,10 0,5.89307 -2.63477,10 -5,10 -2.36523,0 -5,-4.10693 -5,-10 0,-5.89307 2.63477,-10 5,-10 z"
         id="path261" />
      <path
         d="m 27.5,88 a 9.9356,9.9356 0 0 0 5.493,-1.65314 c 7.13763,11.34033 18.28461,17.82208 30.68372,17.82208 0.09766,0 0.19824,-0.001 0.29688,-0.002 A 37.03237,37.03237 0 0 0 95.01025,86.34894 9.93571,9.93571 0 0 0 100.5,88 a 2,2 0 0 0 0,-4 6.00656,6.00656 0 0 1 -6,-6 2,2 0 0 0 -4,0 9.938,9.938 0 0 0 1.66937,5.51978 1.98608,1.98608 0 0 0 -0.38812,0.45679 33.02365,33.02365 0 0 1 -27.84082,16.19143 c -0.08691,0 -0.17383,10e-4 -0.26172,10e-4 -11.0918,0 -21.0957,-5.90137 -27.47754,-16.2207 A 1.97979,1.97979 0 0 0 35.83099,83.5193 9.93748,9.93748 0 0 0 37.5,78 a 2,2 0 0 0 -4,0 6.00656,6.00656 0 0 1 -6,6 2,2 0 0 0 0,4 z"
         id="path263" />
    </g>
  </g>
</svg>
