<?xml version="1.0" encoding="UTF-8" standalone="no"?>
<!-- Created with Inkscape (http://www.inkscape.org/) -->

<svg
   width="89.720764mm"
   height="27.088547mm"
   viewBox="0 0 89.720764 27.088547"
   version="1.1"
   id="svg560"
   inkscape:version="1.2 (1:1.2.1+202207142221+cd75a1ee6d)"
   sodipodi:docname="name.svg"
   xmlns:inkscape="http://www.inkscape.org/namespaces/inkscape"
   xmlns:sodipodi="http://sodipodi.sourceforge.net/DTD/sodipodi-0.dtd"
   xmlns="http://www.w3.org/2000/svg"
   xmlns:svg="http://www.w3.org/2000/svg">
  <sodipodi:namedview
     id="namedview562"
     pagecolor="#ffffff"
     bordercolor="#000000"
     borderopacity="0.25"
     inkscape:showpageshadow="2"
     inkscape:pageopacity="0.0"
     inkscape:pagecheckerboard="0"
     inkscape:deskcolor="#d1d1d1"
     inkscape:document-units="mm"
     showgrid="false"
     inkscape:zoom="0.75722503"
     inkscape:cx="122.81686"
     inkscape:cy="271.38564"
     inkscape:window-width="2510"
     inkscape:window-height="1016"
     inkscape:window-x="50"
     inkscape:window-y="27"
     inkscape:window-maximized="1"
     inkscape:current-layer="layer1" />
  <defs
     id="defs557" />
  <g
     inkscape:label="Capa 1"
     inkscape:groupmode="layer"
     id="layer1"
     transform="translate(-46.437323,-77.005144)">
    <g
       id="SvgjsG2411"
       featurekey="nameFeature-0"
       transform="matrix(0.45463642,0,0,0.45463642,46.437323,73.124677)"
       fill="#118df0">
      <path
         d="M 9.36,39.88 C 8.36,40.04 7.28,40.08 6.2,39.84 5.08,39.6 4.04,39.04 3.24,38.36 2.44,37.72 1.88,36.96 1.48,36.24 1.08,35.52 0.8,34.88 0.6,34.28 0.24,33.08 0.12,32.16 0.04,31.48 0.04,31.16 0,30.92 0,30.76 v -0.28 c 0,0 0.04,-0.04 0.12,-0.16 0.08,-0.08 0.2,-0.2 0.36,-0.32 0.28,-0.24 0.64,-0.4 1.04,-0.24 0.76,0.32 0.92,0.6 1.44,0.48 0.28,-0.04 0.48,0 0.64,0.04 0.12,0.04 0.2,0.08 0.2,0.08 0,0.64 0.04,1.32 0.16,1.92 0.12,0.64 0.28,1.28 0.56,1.84 0.24,0.56 0.6,1.04 1.04,1.44 0.44,0.4 0.96,0.68 1.52,0.8 L 7.12,36.08 C 6.64,35.96 6.2,35.72 5.84,35.4 5.48,35.08 5.2,34.64 4.96,34.16 4.72,33.72 4.56,33.16 4.44,32.64 4.32,32.08 4.28,31.52 4.28,30.92 c 0,0 0.24,-0.04 0.56,-0.04 0.32,-0.04 0.76,0 1.16,0.08 0,0 0.04,0.08 0.04,0.2 0,0.12 0,0.32 0.04,0.52 0.04,0.24 0.08,0.52 0.16,0.8 0.08,0.28 0.2,0.6 0.32,0.84 0.16,0.28 0.32,0.52 0.48,0.64 0.16,0.12 0.32,0.24 0.6,0.28 0.28,0.08 0.72,0.08 1.24,-0.04 0.56,-0.12 1.16,-0.32 1.84,-0.64 0.32,-0.12 0.68,-0.32 0.96,-0.44 0.12,-0.12 0.24,-0.2 0.36,-0.28 0.12,-0.08 0.24,-0.16 0.28,-0.16 0.08,-0.04 0.12,-0.12 0.12,-0.2 0,-0.04 0,-0.08 -0.04,-0.12 C 12.44,32.4 12.24,32.08 12,31.84 11.56,31.36 10.92,30.8 10.28,30.28 9.56,29.72 8.88,29.16 8.24,28.64 7.88,28.32 7.52,28.04 7.16,27.72 6.8,27.36 6.44,27 6.04,26.56 5.96,26.44 5.84,26.32 5.76,26.2 5.68,26.08 5.56,25.88 5.48,25.76 5.36,25.52 5.2,25.32 5.12,25.08 5,24.8 4.88,24.6 4.76,24.32 L 4.64,23.96 c 0,0 -0.08,-0.24 -0.12,-0.4 -0.28,-1 -0.36,-2 -0.28,-2.88 0.08,-1.2 0.4,-2.36 0.84,-3.44 0.24,-0.52 0.48,-1 0.76,-1.48 0.28,-0.48 0.6,-0.96 0.92,-1.4 0.36,-0.44 0.68,-0.84 1.04,-1.24 0.36,-0.4 0.72,-0.8 1.12,-1.16 l 1.2,-1.08 c 0.2,-0.16 0.44,-0.32 0.64,-0.48 0.12,-0.08 0.24,-0.16 0.32,-0.24 l 0.12,-0.08 h 0.04 l 0.04,-0.04 0.24,-0.16 C 11.68,9.76 11.84,9.68 12,9.6 12.08,9.52 12.2,9.48 12.28,9.44 l 0.28,-0.12 c 0.2,-0.12 0.36,-0.2 0.56,-0.28 0.2,-0.08 0.4,-0.12 0.6,-0.2 0.76,-0.24 1.52,-0.36 2.24,-0.28 0.72,0.08 1.4,0.32 2,0.68 0.6,0.4 1.08,0.88 1.44,1.44 0.32,0.6 0.56,1.24 0.68,1.88 0.16,0.64 0.16,1.32 0.16,1.96 -0.04,0.32 -0.04,0.64 -0.12,0.92 0,0.16 -0.04,0.32 -0.08,0.44 0,0.12 -0.04,0.2 -0.08,0.32 -0.08,0.44 -0.2,0.8 -0.36,1.16 -0.36,1.08 -1.08,1.88 -1.76,2.32 -0.36,0.2 -0.68,0.32 -0.96,0.32 -0.28,0 -0.48,-0.04 -0.6,-0.2 l -1.44,-1.68 c -0.16,-0.16 -0.24,-0.36 -0.28,-0.56 -0.04,-0.16 -0.08,-0.4 -0.04,-0.6 0,-0.4 0.08,-0.88 0.28,-1.36 0.08,-0.2 0.16,-0.44 0.2,-0.68 0.04,-0.16 0.04,-0.16 0.04,-0.2 V 14.6 c 0,-0.12 0,-0.32 -0.12,-0.44 -0.04,-0.08 -0.12,-0.08 -0.24,-0.08 -0.08,0 -0.16,0 -0.24,0.04 -0.04,0.04 -0.08,0.04 -0.12,0.08 -0.04,0 -0.08,0.04 -0.12,0.04 l -0.04,0.04 -0.04,0.04 h -0.04 v 0.04 c -0.2,0.12 -0.36,0.24 -0.56,0.4 -0.2,0.16 -0.36,0.28 -0.56,0.44 -0.72,0.64 -1.44,1.4 -2,2.16 -0.6,0.8 -1.08,1.64 -1.32,2.4 -0.28,0.8 -0.32,1.52 -0.16,2.16 0.04,0.28 0.16,0.6 0.32,0.88 0.04,0.08 0.12,0.16 0.16,0.24 v 0.04 H 10 l 0.04,0.08 c 0.08,0.08 0.2,0.24 0.32,0.36 0.36,0.36 0.84,0.76 1.4,1.16 0.56,0.48 1.16,0.92 1.76,1.4 0.64,0.48 1.32,1 2,1.68 0.36,0.32 0.68,0.68 1.04,1.12 0.08,0.08 0.2,0.24 0.28,0.36 0.12,0.12 0.2,0.32 0.32,0.48 0.2,0.32 0.36,0.64 0.52,1 0.12,0.32 0.24,0.72 0.32,1.08 0.04,0.36 0.08,0.72 0.04,1.12 -0.04,0.72 -0.24,1.48 -0.6,2.12 -0.36,0.68 -0.84,1.24 -1.44,1.76 -0.28,0.24 -0.48,0.4 -0.72,0.56 -0.08,0.08 -0.2,0.16 -0.32,0.24 -0.12,0.08 -0.2,0.12 -0.32,0.2 -0.2,0.12 -0.44,0.24 -0.64,0.36 -0.2,0.12 -0.4,0.24 -0.6,0.32 -0.2,0.12 -0.4,0.2 -0.6,0.32 -0.2,0.08 -0.44,0.2 -0.64,0.28 -0.88,0.36 -1.8,0.64 -2.8,0.8 z m 28.184,-1.04 c 0,0 -0.76,0.44 -1.52,0.28 -0.8,-0.16 -0.96,-0.32 -1.48,-0.28 -0.52,0.04 -0.84,-0.12 -0.84,-0.12 0.04,-0.44 0.08,-0.92 0.12,-1.4 -0.12,0.12 -0.28,0.2 -0.4,0.32 l -0.04,0.04 -0.08,0.68 c 0,0 -0.4,0.04 -0.88,0 -0.36,0.2 -0.68,0.44 -1.08,0.64 -0.4,0.2 -0.8,0.44 -1.28,0.64 -0.2,0.08 -0.48,0.16 -0.72,0.28 -0.12,0.04 -0.28,0.08 -0.4,0.12 l -0.2,0.04 -0.2,0.08 c -0.16,0 -0.32,0.04 -0.48,0.08 l -0.24,0.04 c -0.12,0 -0.2,0 -0.32,0.04 -0.36,0 -0.72,0 -1.12,-0.04 -0.72,-0.08 -1.44,-0.28 -2.08,-0.68 -0.48,-0.24 -0.88,-0.56 -1.24,-0.96 -0.36,-0.36 -0.68,-0.8 -0.92,-1.24 l -0.12,-0.16 -0.08,-0.16 -0.12,-0.32 c -0.04,-0.12 -0.08,-0.2 -0.12,-0.32 -0.04,-0.08 -0.08,-0.2 -0.12,-0.28 -0.12,-0.4 -0.2,-0.76 -0.28,-1.16 -0.24,-1.44 -0.16,-2.68 -0.08,-3.8 0.04,-0.56 0.12,-1.08 0.2,-1.56 0.04,-0.48 0.12,-0.92 0.2,-1.36 0.04,-0.48 0.12,-0.92 0.16,-1.32 0.08,-0.44 0.16,-0.84 0.24,-1.24 0.48,-2.56 1.2,-5.36 1.72,-7.8 0.24,-1.24 0.44,-2.4 0.56,-3.4 0,-0.16 0,-0.28 0.04,-0.4 v -0.36 c 0.04,-0.24 0.04,-0.44 0.04,-0.68 v -0.6 c 0,0 0.04,-0.4 0,-0.56 0,-0.28 0,-0.48 0.08,-0.72 0.04,-0.12 0.04,-0.2 0.08,-0.32 0.04,-0.08 0.08,-0.2 0.16,-0.28 0.2,-0.36 0.56,-0.64 0.96,-0.72 l 2.16,-0.36 c 0.4,-0.08 0.8,0.12 1.12,0.52 0.16,0.2 0.32,0.44 0.4,0.72 0.08,0.28 0.16,0.6 0.16,0.92 0.04,1.08 0.04,2.44 -0.16,3.96 -0.2,1.48 -0.52,3.12 -0.88,4.76 -0.36,1.68 -0.8,3.36 -1.12,4.96 l -0.24,1.2 c -0.04,0.4 -0.12,0.8 -0.16,1.2 -0.12,0.8 -0.2,1.6 -0.32,2.4 -0.08,0.68 -0.16,1.4 -0.16,2.08 0,0.68 0.04,1.28 0.12,1.76 0.04,0.2 0.12,0.4 0.16,0.52 0.04,0.04 0.08,0.12 0.08,0.16 h 0.04 v 0 c 0,0 -0.04,0 0,0 v 0 c 0.04,0.04 0.08,0.04 0.12,0.04 0.04,0.04 0.08,0.04 0.08,0 h 0.04 -0.04 0.08 c 0.04,-0.04 0.08,-0.04 0.12,-0.04 0.08,-0.04 0.12,-0.04 0.2,-0.08 0.2,-0.08 0.48,-0.2 0.76,-0.36 0.24,-0.12 0.52,-0.32 0.8,-0.48 0.52,-0.36 1,-0.76 1.44,-1.16 0.44,-0.4 0.84,-0.8 1.2,-1.16 0.32,-0.32 0.56,-0.6 0.8,-0.84 0.28,-1.64 0.56,-3.36 0.84,-4.96 0.32,-1.84 0.6,-3.56 0.84,-4.88 0.56,-3.52 1.2,-8.04 1.44,-10.32 0.08,-0.84 0.8,-1.44 1.64,-1.36 l 2.2,0.24 c 0.8,0.08 1.36,0.84 1.28,1.68 -0.16,1.4 -0.44,3.56 -0.8,5.92 -0.32,2.36 -0.72,4.96 -1.04,7.24 -0.36,2.6 -1.08,9.44 -1.08,9.48 -0.08,0.72 -0.12,1.44 -0.16,2.08 0,0.6 -0.04,1.16 -0.08,1.64 z M 33.744,35 c 0.12,-0.12 0.24,-0.2 0.36,-0.32 l 0.04,-0.36 h -0.16 c -0.04,0.04 -0.08,0.08 -0.16,0.12 z m 25.144,3.36 v 0.6 0.2 c 0,0 -0.16,0.04 -0.44,0.12 -0.28,0.04 -0.68,0.08 -1.04,0.04 -0.76,-0.04 -0.96,-0.16 -1.48,-0.12 -0.52,0.04 -0.84,-0.04 -0.84,-0.04 0.04,-0.48 0.08,-0.88 0.12,-1.32 -0.04,0 -0.08,0.04 -0.08,0.04 -0.12,0.08 -0.24,0.12 -0.36,0.2 l -0.12,0.84 h -0.56 c -0.28,0 -0.6,-0.04 -0.92,-0.08 l -0.6,0.24 c -0.48,0.2 -0.96,0.36 -1.52,0.52 l -0.84,0.24 c -0.16,0.04 -0.32,0.04 -0.48,0.08 -0.16,0.04 -0.32,0.04 -0.48,0.08 -0.36,0.04 -0.72,0.08 -1.04,0.04 h -0.52 -0.28 L 47.128,40 c -0.2,-0.04 -0.36,-0.04 -0.56,-0.08 -0.16,-0.04 -0.36,-0.08 -0.56,-0.12 -0.12,-0.04 -0.2,-0.04 -0.28,-0.08 l -0.32,-0.12 -0.28,-0.12 c -0.12,-0.04 -0.2,-0.08 -0.32,-0.12 -0.76,-0.36 -1.52,-0.96 -2.08,-1.64 -0.12,-0.2 -0.28,-0.36 -0.4,-0.56 -0.12,-0.16 -0.2,-0.36 -0.32,-0.52 -0.16,-0.4 -0.36,-0.76 -0.48,-1.12 -0.04,-0.2 -0.12,-0.36 -0.16,-0.56 -0.04,-0.16 -0.08,-0.36 -0.12,-0.52 -0.04,-0.36 -0.12,-0.72 -0.12,-1.04 -0.08,-0.68 -0.08,-1.36 -0.08,-1.96 0.08,-1.28 0.24,-2.48 0.48,-3.6 0.2,-1.12 0.48,-2.24 0.8,-3.24 0.12,-0.48 0.28,-0.96 0.44,-1.48 0.16,-0.48 0.32,-0.96 0.52,-1.52 0.4,-1.04 0.8,-2.12 1.32,-3.16 0.96,-2.08 2.16,-4.16 3.76,-5.96 0.8,-0.92 1.72,-1.72 2.8,-2.36 0.12,-0.08 0.24,-0.16 0.4,-0.2 0.12,-0.08 0.28,-0.16 0.4,-0.2 0.28,-0.16 0.56,-0.24 0.88,-0.36 0.12,-0.04 0.28,-0.08 0.44,-0.12 0.12,-0.04 0.28,-0.08 0.44,-0.12 L 54.568,9 h 0.8 c 0.28,0 0.52,0 0.76,0.04 0.12,0 0.2,0.04 0.32,0.04 0.12,0.04 0.2,0.04 0.32,0.08 0.2,0.04 0.4,0.08 0.56,0.12 0.32,0.12 0.6,0.2 0.8,0.28 0.28,0.12 0.48,0.2 0.64,0.24 0.6,0.32 1.08,0.76 1.48,1.2 0.08,0.12 0.2,0.2 0.28,0.32 0.04,0.08 0.08,0.12 0.12,0.2 0.04,0.04 0.08,0.08 0.12,0.16 0.16,0.2 0.28,0.4 0.4,0.6 0.4,0.8 0.6,1.48 0.76,2.08 0.24,1.2 0.24,2 0.24,2.6 -0.04,0.56 -0.04,0.92 -0.08,1.12 -0.04,0.2 -0.04,0.28 -0.04,0.28 0,0 -0.2,0.24 -0.52,0.4 -0.32,0.16 -0.68,0.28 -1.04,0.08 -0.76,-0.36 -0.88,-0.64 -1.4,-0.64 -0.28,0.04 -0.48,-0.04 -0.64,-0.08 -0.12,-0.08 -0.2,-0.12 -0.2,-0.12 0.16,-1 0.2,-1.96 0,-2.88 -0.08,-0.48 -0.24,-0.92 -0.44,-1.28 l -0.12,-0.12 -0.08,-0.16 c -0.04,-0.08 -0.12,-0.16 -0.2,-0.2 -0.12,-0.16 -0.28,-0.32 -0.48,-0.4 l -0.2,-0.08 c -0.12,-0.08 -0.2,-0.08 -0.28,-0.12 l -0.28,-0.12 c -0.08,0 -0.2,-0.04 -0.28,-0.04 l -0.04,0.28 c 0.08,0.04 0.16,0.04 0.24,0.08 l 0.28,0.08 0.12,0.04 c 0.04,0.04 0.08,0.04 0.12,0.08 l 0.2,0.08 c 0.12,0.08 0.24,0.2 0.36,0.32 0.04,0.04 0.08,0.12 0.12,0.16 l 0.16,0.2 c 0.16,0.32 0.28,0.68 0.36,1.04 0.2,0.76 0.2,1.6 0.08,2.48 0,0 -0.24,0 -0.56,-0.04 -0.36,-0.04 -0.8,-0.08 -1.16,-0.24 v -0.2 c 0.04,-0.16 0,-0.32 0.04,-0.64 -0.04,-0.12 -0.04,-0.28 -0.04,-0.44 -0.04,-0.08 -0.04,-0.16 -0.04,-0.28 -0.04,-0.08 -0.04,-0.16 -0.08,-0.24 0,-0.04 -0.04,-0.08 -0.04,-0.12 0,-0.04 0,-0.08 -0.04,-0.12 0,-0.04 -0.04,-0.08 -0.04,-0.12 0,0 -0.04,-0.04 -0.04,-0.08 l -0.04,-0.04 v 0 0 c 0,0 0.08,0.04 -0.04,-0.04 -0.04,-0.04 -0.12,-0.04 -0.16,-0.08 h -0.12 c -0.04,-0.04 -0.04,-0.04 -0.08,-0.04 -0.04,0 -0.08,-0.04 -0.12,-0.04 h -0.08 c -0.16,-0.04 -0.28,-0.04 -0.44,0 -0.2,0 -0.4,0.08 -0.6,0.16 -0.24,0.12 -0.52,0.28 -0.8,0.48 -0.28,0.24 -0.6,0.48 -0.92,0.8 -0.6,0.64 -1.2,1.44 -1.8,2.36 -0.56,0.92 -1.08,1.92 -1.56,2.92 -0.24,0.52 -0.48,1.04 -0.68,1.56 -0.12,0.28 -0.2,0.52 -0.28,0.76 -0.12,0.28 -0.2,0.56 -0.32,0.8 -0.72,2.12 -1.24,4.08 -1.48,5.64 -0.08,0.68 -0.16,1.36 -0.16,2 0,0.68 0.08,1.28 0.2,1.76 0.04,0.04 0.04,0.12 0.08,0.16 0,0.04 0.04,0.08 0.04,0.12 0.04,0.04 0.04,0.12 0.08,0.16 0,0.04 0.04,0.04 0.04,0.08 0.04,0.04 0.08,0.08 0.08,0.12 0.04,0 0.04,0.04 0.08,0.04 0.04,0.04 0.04,0.12 0.12,0.12 0,0.04 0.04,0.04 0.04,0.04 0.04,0.04 0.08,0.04 0.12,0.04 0,0.04 0,0.04 0.04,0.04 l 0.04,0.04 c 0.04,0 0.08,0 0.12,0.04 h 0.12 c 0.04,0.04 0.08,0.04 0.12,0.04 0.12,0.04 0.24,0.04 0.36,0.04 h 0.4 c 0.04,0.04 0.12,0 0.16,0 h 0.16 c 0.12,-0.04 0.28,-0.04 0.4,-0.08 0.16,-0.04 0.28,-0.08 0.44,-0.08 0.6,-0.16 1.2,-0.4 1.76,-0.64 0.56,-0.24 1.12,-0.56 1.6,-0.8 0.44,-0.28 0.88,-0.56 1.24,-0.8 0,-0.04 0.04,-0.04 0.04,-0.04 0.04,-0.08 0.04,-0.12 0.04,-0.2 0.12,-0.28 0.2,-0.6 0.28,-0.92 l 0.08,-0.24 0.04,-0.2 0.12,-0.36 0.04,-0.08 v 0 0 -0.04 l 0.04,-0.04 c 0,-0.04 0.04,-0.04 0.04,-0.08 0.04,-0.08 0.08,-0.12 0.08,-0.2 0,-0.04 0,-0.08 -0.04,-0.08 h -0.16 c -0.08,0.04 -0.16,0.04 -0.24,0.04 v 0 h -0.04 v 0 0 h -0.04 c -0.16,0 -0.28,0 -0.44,-0.04 -0.28,0 -0.56,0 -0.88,-0.04 -0.56,0 -1.12,-0.08 -1.6,-0.16 -0.32,-0.04 -0.64,-0.28 -0.8,-0.56 -0.2,-0.32 -0.2,-0.72 -0.08,-1.08 l 0.68,-2.08 c 0.12,-0.4 0.28,-0.72 0.48,-0.92 0.16,-0.24 0.36,-0.36 0.56,-0.32 0.32,0.04 0.8,0.08 1.4,0.12 0.32,0 0.64,0.04 1,0.04 0.16,0 0.32,0.04 0.44,0.04 h 0.52 c 0.32,0.04 0.68,0 1.04,0 0.76,-0.04 1.44,0.04 2,0.2 0.28,0.12 0.48,0.2 0.72,0.32 0.2,0.12 0.4,0.28 0.6,0.48 0.12,0.08 0.2,0.2 0.28,0.32 0.08,0.12 0.16,0.24 0.2,0.36 0.08,0.12 0.12,0.24 0.12,0.36 0.04,0.12 0.08,0.2 0.08,0.32 0.04,0.28 0.08,0.52 0.08,0.8 -0.04,0.32 -0.08,0.6 -0.12,0.92 0,0.08 -0.04,0.2 -0.08,0.32 -0.04,0.08 -0.08,0.2 -0.08,0.28 -0.08,0.2 -0.16,0.44 -0.2,0.64 -0.12,0.44 -0.28,0.88 -0.4,1.32 -0.04,0.28 -0.12,0.52 -0.16,0.8 -0.08,0.24 -0.12,0.48 -0.16,0.72 -0.2,1 -0.36,2 -0.48,2.88 -0.08,0.88 -0.12,1.64 -0.16,2.16 z m 13.064,-8 c -0.8,0.08 -1.72,0.12 -2.56,0.2 -1.32,2.96 -2.52,6.28 -3.08,8.16 -0.28,0.88 -1.12,1.4 -1.92,1.16 l -2.12,-0.64 c -0.76,-0.24 -1.16,-1.16 -0.88,-2.08 0.48,-1.44 1.24,-3.76 2.24,-6.24 1,-2.48 2.2,-5.16 3.32,-7.48 1.36,-2.88 3.32,-6.56 5,-9.52 0.44,-0.76 0.8,-1.44 1.16,-2.08 0.4,-0.6 0.72,-1.16 1,-1.64 0.56,-0.92 0.88,-1.48 0.88,-1.48 0,0 0.88,-0.04 1.48,0.52 0.56,0.52 0.6,0.76 1.08,1 0.48,0.24 0.68,0.52 0.68,0.52 l -0.48,0.72 0.44,0.08 c 0.08,-0.08 0.16,-0.16 0.2,-0.24 0,0 0.84,0.4 1.4,1.04 0,0 -0.04,0.04 -0.12,0.16 0.08,0.2 0.12,0.4 0.12,0.64 -0.08,0.56 -0.12,1.32 -0.16,2.24 0,0.88 0,1.92 0.04,3.04 0.04,1.12 0.08,2.32 0.12,3.52 0,1.24 -0.04,2.48 -0.08,3.64 -0.08,1.44 -0.24,3.08 -0.4,4.68 -0.2,1.6 -0.4,3.2 -0.52,4.6 -0.12,1.4 -0.16,2.6 -0.2,3.44 v 1 0.36 c 0,0 -0.16,0.08 -0.44,0.2 -0.28,0.08 -0.68,0.16 -1.04,0.08 -0.8,-0.12 -0.96,-0.24 -1.48,-0.2 -0.52,0.04 -0.84,-0.04 -0.84,-0.04 0.04,-1.44 0.2,-2.88 0.4,-4.28 h -0.32 c -0.2,1.28 -0.4,2.6 -0.52,3.92 0,0 -0.24,0.04 -0.56,0 -0.36,0 -0.76,0 -1.16,-0.12 0,0 0,-0.8 0.12,-2 0.12,-1.24 0.36,-2.88 0.64,-4.64 0.12,-0.76 0.24,-1.52 0.4,-2.28 -0.72,0 -1.36,0 -1.84,0.04 z m 2.64,-9.84 c -0.6,1.04 -1.2,2.08 -1.76,3.12 -0.28,0.48 -0.56,1 -0.84,1.48 0.24,0 0.44,-0.04 0.64,-0.08 0.56,-0.04 1.2,-0.12 1.88,-0.2 0.04,-0.72 0.08,-1.36 0.08,-1.96 0.04,-0.72 0.04,-1.52 0,-2.36 z m 23.104,6.8 c -0.92,0.72 -1.96,1.28 -3,1.72 -0.2,0.04 -0.4,0.12 -0.6,0.2 0.48,0.6 0.96,1.2 1.4,1.76 0.92,1.08 2.16,2.44 3.28,3.4 0.52,0.52 1.04,0.92 1.4,1.24 0.36,0.28 0.6,0.44 0.6,0.44 0,0 -0.32,0.72 -0.88,1.28 -0.52,0.56 -0.72,0.64 -1.04,1.04 -0.32,0.4 -0.56,0.64 -0.56,0.64 -0.56,-0.56 -1.12,-1.12 -1.64,-1.72 l -0.2,0.24 c 0.44,0.56 0.92,1.12 1.4,1.68 0,0 -0.56,0.76 -1.16,1.28 0,0 -0.08,-0.08 -0.24,-0.2 -0.12,-0.16 -0.32,-0.32 -0.56,-0.6 -0.24,-0.24 -0.52,-0.52 -0.8,-0.84 -0.16,-0.2 -0.32,-0.36 -0.48,-0.56 -0.16,-0.16 -0.32,-0.36 -0.52,-0.56 -0.64,-0.8 -1.36,-1.68 -2,-2.48 -0.6,-0.84 -1.16,-1.64 -1.6,-2.2 -0.56,-0.8 -1.24,-1.72 -1.84,-2.52 -0.2,1.32 -0.4,2.68 -0.56,3.88 -0.08,0.72 -0.16,1.4 -0.24,2 -0.04,0.6 -0.08,1.16 -0.12,1.6 -0.08,0.88 -0.08,1.44 -0.08,1.44 0,0 -0.2,0.08 -0.48,0.16 -0.32,0.08 -0.68,0.12 -1.08,0.04 -0.76,-0.2 -0.92,-0.36 -1.44,-0.32 -0.52,0 -0.84,-0.12 -0.84,-0.12 0.12,-0.72 0.16,-1.44 0.28,-2.16 l 0.16,-1.08 0.2,-1.08 h -0.32 l -0.2,0.96 -0.16,1 c -0.08,0.32 -0.16,0.64 -0.2,0.96 l -0.16,1 c 0,0 -0.96,0.04 -1.72,-0.24 0,0 0.04,-0.2 0.08,-0.52 0,-0.2 0.04,-0.4 0.08,-0.64 0,-0.24 0.04,-0.52 0.12,-0.8 0.04,-0.32 0.08,-0.64 0.12,-1 0.08,-0.36 0.12,-0.72 0.2,-1.12 0.12,-0.8 0.32,-1.68 0.48,-2.56 0.36,-1.8 0.8,-3.72 1.2,-5.52 0.4,-1.8 0.8,-3.44 1.08,-4.72 0.76,-3.4 1.64,-7.72 1.96,-9.96 0.12,-0.76 0.88,-1.32 1.68,-1.2 l 0.72,0.12 c 0.68,-0.32 1.48,-0.6 2.44,-0.84 0.64,-0.16 1.32,-0.28 2.12,-0.4 0.4,-0.04 0.84,-0.08 1.36,-0.08 0.24,0 0.52,0.04 0.8,0.04 0.08,0.04 0.16,0.04 0.24,0.04 0.12,0 0.2,0.04 0.28,0.04 0.16,0.04 0.36,0.08 0.52,0.16 0.2,0.04 0.44,0.16 0.6,0.24 0.08,0 0.12,0.04 0.16,0.04 0.08,0.04 0.12,0.08 0.16,0.08 0.08,0.08 0.2,0.12 0.28,0.16 0.12,0.08 0.24,0.12 0.32,0.2 0.08,0.08 0.2,0.12 0.28,0.2 0.08,0.08 0.2,0.16 0.28,0.24 0.08,0.08 0.16,0.16 0.28,0.24 0.68,0.64 1.2,1.44 1.6,2.28 0.4,0.84 0.64,1.68 0.84,2.56 0.16,0.84 0.24,1.72 0.2,2.56 0,0.28 0,0.52 -0.04,0.8 0,0.24 -0.04,0.52 -0.08,0.8 -0.12,0.56 -0.24,1.08 -0.4,1.64 -0.2,0.52 -0.44,1.08 -0.68,1.6 -0.28,0.48 -0.56,1 -0.88,1.48 -0.68,0.96 -1.52,1.84 -2.4,2.56 z m -6,-1.32 c 0.28,0 0.56,-0.04 0.84,-0.08 l -0.08,-0.28 c -0.36,0.04 -0.68,0.04 -1.04,0 0.08,0.12 0.16,0.2 0.28,0.36 z m -1.88,-0.32 c 0.16,-0.12 0.32,-0.2 0.48,-0.28 -0.24,-0.04 -0.44,-0.16 -0.64,-0.24 0,0.04 -0.04,0.12 -0.04,0.2 0,0.08 -0.04,0.12 -0.04,0.2 z m 4.04,-2.52 c 0.16,-0.08 0.28,-0.2 0.44,-0.28 0.12,-0.12 0.28,-0.2 0.4,-0.32 0.16,-0.12 0.28,-0.24 0.4,-0.36 0.12,-0.16 0.28,-0.28 0.4,-0.4 0.12,-0.16 0.2,-0.32 0.32,-0.44 0.12,-0.16 0.24,-0.32 0.32,-0.48 l 0.24,-0.48 0.24,-0.48 c 0.12,-0.32 0.2,-0.64 0.24,-0.96 0.04,-0.08 0.04,-0.16 0.04,-0.24 0.04,-0.08 0.04,-0.16 0.04,-0.24 v -0.24 c 0,-0.08 0.04,-0.16 0.04,-0.24 0,-0.64 -0.12,-1.24 -0.24,-1.72 -0.16,-0.52 -0.36,-1.04 -0.6,-1.32 -0.08,-0.08 -0.12,-0.16 -0.16,-0.16 -0.04,-0.04 -0.04,-0.08 -0.08,-0.08 0,-0.04 -0.04,-0.04 -0.08,-0.04 v -0.04 h -0.04 c -0.04,0 -0.04,-0.04 -0.04,-0.04 -0.04,-0.04 -0.04,0 -0.08,-0.04 v 0 h -0.08 -0.24 c -0.2,-0.04 -0.44,0 -0.68,0 -0.48,0.08 -0.96,0.16 -1.44,0.28 -0.64,0.16 -1.2,0.32 -1.6,0.52 -0.2,0.92 -0.36,1.92 -0.6,3 -0.32,1.6 -0.68,3.32 -1,5 0.04,0 0.04,0 0.08,0.04 0.04,0 0.04,0.04 0.12,0.04 0.04,0.04 0.08,0.04 0.12,0.08 0.08,0 0.12,0.04 0.2,0.08 0.04,0 0.12,0.04 0.2,0.04 0.04,0.04 0.08,0.04 0.12,0.04 0.04,0 0.08,0.04 0.12,0.04 0.32,0.08 0.72,0.08 1.24,0.04 0.48,-0.08 1.04,-0.28 1.64,-0.6 z m 9.424,8.68 c 0.36,-1.84 0.76,-3.8 1.2,-5.68 0.4,-1.84 0.8,-3.56 1.08,-4.84 0.76,-3.48 1.64,-7.96 1.96,-10.24 0.12,-0.84 0.88,-1.4 1.68,-1.28 l 1.28,0.2 c 0.68,-0.16 1.56,-0.28 2.52,-0.36 1.2,-0.12 2.48,-0.16 3.6,-0.2 1.32,0 3.08,-0.04 4.48,-0.08 0.36,0 0.68,0 0.96,-0.04 0.32,0 0.56,0 0.76,-0.04 0.44,0 0.68,-0.04 0.68,-0.04 0,0 0.24,0.76 0.16,1.52 -0.04,0.8 -0.12,1 -0.08,1.52 0,0.52 -0.04,0.84 -0.04,0.84 -0.68,-0.04 -1.36,-0.08 -2.04,-0.16 v 0.28 c 0.6,0.12 1.24,0.24 1.88,0.32 0,0 0.04,0.96 -0.08,1.76 h -0.24 c -0.16,-0.04 -0.4,-0.04 -0.68,-0.08 -0.6,-0.04 -1.36,-0.12 -2.2,-0.2 -1.72,-0.16 -3.64,-0.32 -4.8,-0.32 -0.8,0 -1.64,0.04 -2.44,0.16 -0.32,0 -0.6,0.04 -0.84,0.08 -0.16,0.88 -0.36,1.84 -0.52,2.84 -0.28,1.4 -0.6,2.84 -0.88,4.32 0.24,0 0.52,0 0.76,-0.04 0.92,0 1.92,-0.04 2.84,-0.08 1.08,-0.08 2.56,-0.2 3.76,-0.32 1.24,-0.12 2.2,-0.2 2.2,-0.2 0,0 0.16,0.76 0.12,1.52 -0.04,0.8 -0.12,1 -0.08,1.52 0,0.52 -0.04,0.84 -0.04,0.84 -0.56,-0.04 -1.12,-0.08 -1.72,-0.12 v 0.32 c 0.56,0.08 1.08,0.16 1.6,0.24 0,0 0.04,0.96 -0.04,1.76 0,0 -1.12,-0.08 -2.56,-0.16 -1.44,-0.08 -3.16,-0.12 -4.24,-0.12 -1.12,0 -2.56,0.04 -3.6,0 -0.4,2.32 -0.84,4.92 -1.08,7.12 -0.08,0.72 -0.16,1.4 -0.24,2.04 -0.04,0.6 -0.08,1.16 -0.12,1.64 -0.08,0.92 -0.08,1.48 -0.08,1.48 0,0 -0.2,0.08 -0.48,0.16 -0.32,0.08 -0.68,0.16 -1.08,0.04 -0.76,-0.16 -0.92,-0.32 -1.44,-0.32 -0.52,0 -0.84,-0.12 -0.84,-0.12 0.12,-0.76 0.16,-1.48 0.28,-2.2 l 0.16,-1.12 0.16,-1.12 h -0.28 l -0.2,1 -0.2,1 c -0.04,0.36 -0.12,0.68 -0.16,1.04 l -0.16,1.04 c 0,0 -0.96,0 -1.72,-0.28 0,0 0.04,-0.2 0.08,-0.52 0,-0.2 0.04,-0.4 0.04,-0.64 l 0.12,-0.84 c 0.08,-0.32 0.12,-0.68 0.16,-1.04 0.08,-0.36 0.12,-0.76 0.2,-1.16 0.12,-0.8 0.28,-1.68 0.48,-2.64 z m 30.384,7.96 c -0.8,0.04 -1.64,0.08 -2.44,0.08 -0.8,-0.04 -1.56,-0.04 -2.12,-0.04 -0.76,-0.04 -1.68,-0.08 -2.56,-0.2 -0.84,-0.08 -1.72,-0.28 -2.36,-0.48 -0.04,0 -0.08,-0.04 -0.16,-0.04 -0.48,0 -0.8,-0.12 -0.8,-0.12 0.16,-1.44 0.36,-2.84 0.6,-4.2 l -0.28,-0.04 c -0.08,0.32 -0.16,0.64 -0.2,0.96 l -0.2,0.96 c -0.12,0.64 -0.2,1.28 -0.32,1.96 0,0 -0.96,0 -1.72,-0.24 0,0 0.04,-0.2 0.08,-0.56 0,-0.16 0.04,-0.36 0.04,-0.6 0.04,-0.24 0.08,-0.48 0.12,-0.8 0.04,-0.28 0.12,-0.6 0.16,-0.96 0.04,-0.36 0.12,-0.72 0.2,-1.12 0.12,-0.76 0.28,-1.6 0.44,-2.48 0.36,-1.76 0.8,-3.68 1.24,-5.44 0.44,-1.72 0.84,-3.36 1.12,-4.6 0.36,-1.64 0.8,-3.52 1.12,-5.28 0.2,-0.84 0.32,-1.68 0.48,-2.44 0.12,-0.76 0.24,-1.4 0.32,-1.96 0.08,-0.4 0.28,-0.76 0.64,-0.96 0,-0.12 0,-0.24 0.04,-0.36 0.08,-0.12 0.16,-0.2 0.24,-0.28 0.68,-0.36 1.84,-0.84 3.12,-1.04 1.24,-0.24 2.56,-0.24 3.6,-0.2 1.32,0 2.96,0.16 4.12,0.16 0.6,0 1.08,-0.04 1.4,-0.04 0.32,-0.04 0.52,-0.08 0.52,-0.08 0,0 0.04,0.2 0.08,0.48 0.04,0.28 0.12,0.64 0.12,1.04 -0.04,0.76 -0.08,0.96 -0.04,1.44 0.08,0.52 0.04,0.84 0.04,0.84 -0.68,0 -1.32,-0.04 -1.96,-0.12 v 0.28 c 0.6,0.12 1.2,0.24 1.8,0.32 0,0 0.04,0.2 0.04,0.56 0,0.32 0.04,0.76 0,1.16 h -0.28 c -0.2,0 -0.44,-0.04 -0.72,-0.04 -0.6,-0.04 -1.4,-0.16 -2.2,-0.28 -0.8,-0.12 -1.6,-0.28 -2.36,-0.4 -0.72,-0.08 -1.36,-0.16 -1.84,-0.16 -0.32,0 -0.64,0 -0.96,0.04 -0.2,0 -0.4,0.04 -0.6,0.08 -0.2,1.16 -0.44,2.52 -0.76,4 -0.24,1.16 -0.48,2.36 -0.76,3.56 0.28,0 0.52,0.04 0.76,0.04 l 1.32,0.12 c 0.2,0.04 0.36,0.04 0.52,0.04 h 0.2 c 0.08,0 0.16,-0.04 0.24,-0.04 0.48,0 1.04,-0.04 1.6,-0.12 l 1.8,-0.12 c 0.56,-0.04 1.04,-0.08 1.4,-0.08 0.36,-0.04 0.6,-0.04 0.6,-0.04 0,0 0.12,0.76 0.04,1.52 -0.08,0.76 -0.16,0.96 -0.16,1.48 0,0.52 -0.04,0.84 -0.04,0.84 -0.52,-0.08 -1,-0.12 -1.52,-0.2 v 0.32 c 0.48,0.08 0.92,0.2 1.36,0.28 0,0 0,0.96 -0.12,1.76 0,0 -0.24,-0.04 -0.6,-0.08 -0.4,-0.04 -0.96,-0.12 -1.56,-0.16 -0.6,-0.04 -1.28,-0.08 -1.96,-0.12 -0.36,0 -0.68,0 -0.96,-0.04 -0.44,0 -0.8,-0.04 -1.08,-0.08 -0.36,-0.04 -0.72,-0.08 -1.04,-0.12 -0.32,-0.04 -0.64,-0.08 -0.88,-0.08 -0.48,0 -0.72,0.04 -0.76,0.08 0,0 0,-0.04 -0.04,-0.12 -0.04,-0.04 -0.08,-0.16 -0.12,-0.24 -0.48,2.32 -0.96,5.04 -1.24,7.32 v 0.28 h 0.12 c 0.8,0.08 1.76,0.08 2.6,0 1,-0.04 2.4,-0.24 3.44,-0.48 0.56,-0.08 1,-0.2 1.32,-0.32 0.16,-0.04 0.24,-0.08 0.32,-0.08 0.08,-0.04 0.12,-0.04 0.12,-0.04 0,0 0.08,0.16 0.2,0.44 0.08,0.24 0.2,0.6 0.28,1 0.16,0.76 0.12,0.92 0.28,1.44 0.12,0.48 0.16,0.8 0.16,0.8 -0.6,0.12 -1.2,0.16 -1.8,0.24 l 0.04,0.28 c 0.56,0 1.16,0 1.72,-0.04 0,0 0.08,0.24 0.16,0.56 0.08,0.32 0.16,0.76 0.2,1.16 0,0 -0.08,0 -0.24,0.04 -0.16,0 -0.4,0.04 -0.68,0.08 -0.28,0 -0.56,0.04 -0.92,0.08 -0.36,0 -0.72,0.04 -1.12,0.04 z m 27.264,-29.4 c 0.12,0.16 0.24,0.36 0.28,0.56 0.08,0.24 0.08,0.44 0.08,0.68 -0.16,1.56 -0.52,3.92 -1.16,6.44 -0.64,2.52 -1.48,5.24 -2.32,7.56 -0.12,0.36 -0.24,0.76 -0.4,1.16 -0.16,0.36 -0.28,0.76 -0.44,1.16 -0.32,0.8 -0.68,1.64 -1,2.48 -0.72,1.68 -1.48,3.36 -2.2,4.84 -0.76,1.48 -1.48,2.8 -2,3.72 -0.52,0.92 -0.88,1.48 -0.88,1.48 0,0 -0.2,0 -0.52,-0.04 -0.28,-0.08 -0.64,-0.2 -0.92,-0.48 -0.56,-0.52 -0.64,-0.76 -1.12,-1 -0.44,-0.24 -0.68,-0.52 -0.68,-0.52 0.4,-0.56 0.8,-1.16 1.16,-1.72 -0.04,0 -0.12,0.04 -0.2,0.08 -0.16,0.08 -0.28,0.12 -0.44,0.16 -0.2,0.32 -0.44,0.64 -0.68,0.96 0,0 -0.6,-0.32 -1.12,-0.76 -0.24,0.04 -0.52,0.12 -0.76,0.12 0,0 -0.04,-0.2 -0.16,-0.52 -0.04,-0.16 -0.08,-0.36 -0.16,-0.6 -0.04,-0.24 -0.12,-0.52 -0.2,-0.8 -0.04,-0.28 -0.12,-0.6 -0.2,-0.96 -0.08,-0.36 -0.16,-0.72 -0.24,-1.12 -0.16,-0.76 -0.28,-1.6 -0.44,-2.52 -0.28,-1.76 -0.52,-3.68 -0.72,-5.48 -0.16,-1.8 -0.32,-3.44 -0.48,-4.68 -0.16,-1.64 -0.4,-3.52 -0.68,-5.24 -0.08,-0.44 -0.12,-0.88 -0.2,-1.28 -0.08,-0.4 -0.16,-0.76 -0.2,-1.16 -0.16,-0.72 -0.28,-1.36 -0.4,-1.88 -0.2,-0.72 0.32,-1.48 1.12,-1.68 l 2.12,-0.56 c 0.8,-0.16 1.56,0.32 1.76,1.12 0.28,1.32 0.72,3.4 1.04,5.64 0.32,2.28 0.64,4.76 0.92,6.92 0.32,2.4 0.8,5.48 1.4,8 0.72,-1.44 1.48,-3 2.12,-4.48 0.2,-0.44 0.36,-0.88 0.56,-1.28 0.16,-0.44 0.32,-0.84 0.44,-1.24 0.32,-0.8 0.6,-1.52 0.8,-2.16 0.56,-1.72 1.16,-3.68 1.6,-5.52 0.4,-1.84 0.64,-3.52 0.76,-4.64 0,-0.2 0.08,-0.4 0.16,-0.56 0.08,-0.16 0.2,-0.32 0.36,-0.44 0.28,-0.24 0.64,-0.4 1.04,-0.4 l 2.2,0.12 c 0.4,0 0.76,0.2 1,0.52 z m -14.12,22.52 -0.28,0.08 0.16,0.96 0.16,0.96 0.12,0.6 c 0.08,-0.08 0.12,-0.16 0.16,-0.24 0.04,-0.08 0.12,-0.16 0.16,-0.24 l -0.04,-0.08 -0.24,-1.04 c -0.08,-0.32 -0.16,-0.68 -0.2,-1 z m 24.784,6.88 c -0.8,0.04 -1.64,0.08 -2.44,0.08 -0.8,-0.04 -1.56,-0.04 -2.12,-0.04 -0.76,-0.04 -1.68,-0.08 -2.56,-0.2 -0.84,-0.08 -1.72,-0.28 -2.36,-0.48 -0.04,0 -0.08,-0.04 -0.16,-0.04 -0.48,0 -0.8,-0.12 -0.8,-0.12 0.16,-1.44 0.36,-2.84 0.6,-4.2 l -0.28,-0.04 c -0.08,0.32 -0.16,0.64 -0.2,0.96 l -0.2,0.96 c -0.12,0.64 -0.2,1.28 -0.32,1.96 0,0 -0.96,0 -1.72,-0.24 0,0 0.04,-0.2 0.08,-0.56 0,-0.16 0.04,-0.36 0.04,-0.6 0.04,-0.24 0.08,-0.48 0.12,-0.8 0.04,-0.28 0.12,-0.6 0.16,-0.96 0.04,-0.36 0.12,-0.72 0.2,-1.12 0.12,-0.76 0.28,-1.6 0.44,-2.48 0.36,-1.76 0.8,-3.68 1.24,-5.44 0.44,-1.72 0.84,-3.36 1.12,-4.6 0.36,-1.64 0.8,-3.52 1.12,-5.28 0.2,-0.84 0.32,-1.68 0.48,-2.44 0.12,-0.76 0.24,-1.4 0.32,-1.96 0.08,-0.4 0.28,-0.76 0.64,-0.96 0,-0.12 0,-0.24 0.04,-0.36 0.08,-0.12 0.16,-0.2 0.24,-0.28 0.68,-0.36 1.84,-0.84 3.12,-1.04 1.24,-0.24 2.56,-0.24 3.6,-0.2 1.32,0 2.96,0.16 4.12,0.16 0.6,0 1.08,-0.04 1.4,-0.04 0.32,-0.04 0.52,-0.08 0.52,-0.08 0,0 0.04,0.2 0.08,0.48 0.04,0.28 0.12,0.64 0.12,1.04 -0.04,0.76 -0.08,0.96 -0.04,1.44 0.08,0.52 0.04,0.84 0.04,0.84 -0.68,0 -1.32,-0.04 -1.96,-0.12 v 0.28 c 0.6,0.12 1.2,0.24 1.8,0.32 0,0 0.04,0.2 0.04,0.56 0,0.32 0.04,0.76 0,1.16 h -0.28 c -0.2,0 -0.44,-0.04 -0.72,-0.04 -0.6,-0.04 -1.4,-0.16 -2.2,-0.28 -0.8,-0.12 -1.6,-0.28 -2.36,-0.4 -0.72,-0.08 -1.36,-0.16 -1.84,-0.16 -0.32,0 -0.64,0 -0.96,0.04 -0.2,0 -0.4,0.04 -0.6,0.08 -0.2,1.16 -0.44,2.52 -0.76,4 -0.24,1.16 -0.48,2.36 -0.76,3.56 0.28,0 0.52,0.04 0.76,0.04 l 1.32,0.12 c 0.2,0.04 0.36,0.04 0.52,0.04 h 0.2 c 0.08,0 0.16,-0.04 0.24,-0.04 0.48,0 1.04,-0.04 1.6,-0.12 l 1.8,-0.12 c 0.56,-0.04 1.04,-0.08 1.4,-0.08 0.36,-0.04 0.6,-0.04 0.6,-0.04 0,0 0.12,0.76 0.04,1.52 -0.08,0.76 -0.16,0.96 -0.16,1.48 0,0.52 -0.04,0.84 -0.04,0.84 -0.52,-0.08 -1,-0.12 -1.52,-0.2 v 0.32 c 0.48,0.08 0.92,0.2 1.36,0.28 0,0 0,0.96 -0.12,1.76 0,0 -0.24,-0.04 -0.6,-0.08 -0.4,-0.04 -0.96,-0.12 -1.56,-0.16 -0.6,-0.04 -1.28,-0.08 -1.96,-0.12 -0.36,0 -0.68,0 -0.96,-0.04 -0.44,0 -0.8,-0.04 -1.08,-0.08 -0.36,-0.04 -0.72,-0.08 -1.04,-0.12 -0.32,-0.04 -0.64,-0.08 -0.88,-0.08 -0.48,0 -0.72,0.04 -0.76,0.08 0,0 0,-0.04 -0.04,-0.12 -0.04,-0.04 -0.08,-0.16 -0.12,-0.24 -0.48,2.32 -0.96,5.04 -1.24,7.32 v 0.28 h 0.12 c 0.8,0.08 1.76,0.08 2.6,0 1,-0.04 2.4,-0.24 3.44,-0.48 0.56,-0.08 1,-0.2 1.32,-0.32 0.16,-0.04 0.24,-0.08 0.32,-0.08 0.08,-0.04 0.12,-0.04 0.12,-0.04 0,0 0.08,0.16 0.2,0.44 0.08,0.24 0.2,0.6 0.28,1 0.16,0.76 0.12,0.92 0.28,1.44 0.12,0.48 0.16,0.8 0.16,0.8 -0.6,0.12 -1.2,0.16 -1.8,0.24 l 0.04,0.28 c 0.56,0 1.16,0 1.72,-0.04 0,0 0.08,0.24 0.16,0.56 0.08,0.32 0.16,0.76 0.2,1.16 0,0 -0.08,0 -0.24,0.04 -0.16,0 -0.4,0.04 -0.68,0.08 -0.28,0 -0.56,0.04 -0.92,0.08 -0.36,0 -0.72,0.04 -1.12,0.04 z m 21.264,-12.48 c -0.92,0.72 -1.96,1.28 -3,1.72 -0.2,0.04 -0.4,0.12 -0.6,0.2 0.48,0.6 0.96,1.2 1.4,1.76 0.92,1.08 2.16,2.44 3.28,3.4 0.52,0.52 1.04,0.92 1.4,1.24 0.36,0.28 0.6,0.44 0.6,0.44 0,0 -0.32,0.72 -0.88,1.28 -0.52,0.56 -0.72,0.64 -1.04,1.04 -0.32,0.4 -0.56,0.64 -0.56,0.64 -0.56,-0.56 -1.12,-1.12 -1.64,-1.72 l -0.2,0.24 c 0.44,0.56 0.92,1.12 1.4,1.68 0,0 -0.56,0.76 -1.16,1.28 0,0 -0.08,-0.08 -0.24,-0.2 -0.12,-0.16 -0.32,-0.32 -0.56,-0.6 -0.24,-0.24 -0.52,-0.52 -0.8,-0.84 -0.16,-0.2 -0.32,-0.36 -0.48,-0.56 -0.16,-0.16 -0.32,-0.36 -0.52,-0.56 -0.64,-0.8 -1.36,-1.68 -2,-2.48 -0.6,-0.84 -1.16,-1.64 -1.6,-2.2 -0.56,-0.8 -1.24,-1.72 -1.84,-2.52 -0.2,1.32 -0.4,2.68 -0.56,3.88 -0.08,0.72 -0.16,1.4 -0.24,2 -0.04,0.6 -0.08,1.16 -0.12,1.6 -0.08,0.88 -0.08,1.44 -0.08,1.44 0,0 -0.2,0.08 -0.48,0.16 -0.32,0.08 -0.68,0.12 -1.08,0.04 -0.76,-0.2 -0.92,-0.36 -1.44,-0.32 -0.52,0 -0.84,-0.12 -0.84,-0.12 0.12,-0.72 0.16,-1.44 0.28,-2.16 l 0.16,-1.08 0.2,-1.08 h -0.32 l -0.2,0.96 -0.16,1 c -0.08,0.32 -0.16,0.64 -0.2,0.96 l -0.16,1 c 0,0 -0.96,0.04 -1.72,-0.24 0,0 0.04,-0.2 0.08,-0.52 0,-0.2 0.04,-0.4 0.08,-0.64 0,-0.24 0.04,-0.52 0.12,-0.8 0.04,-0.32 0.08,-0.64 0.12,-1 0.08,-0.36 0.12,-0.72 0.2,-1.12 0.12,-0.8 0.32,-1.68 0.48,-2.56 0.36,-1.8 0.8,-3.72 1.2,-5.52 0.4,-1.8 0.8,-3.44 1.08,-4.72 0.76,-3.4 1.64,-7.72 1.96,-9.96 0.12,-0.76 0.88,-1.32 1.68,-1.2 l 0.72,0.12 c 0.68,-0.32 1.48,-0.6 2.44,-0.84 0.64,-0.16 1.32,-0.28 2.12,-0.4 0.4,-0.04 0.84,-0.08 1.36,-0.08 0.24,0 0.52,0.04 0.8,0.04 0.08,0.04 0.16,0.04 0.24,0.04 0.12,0 0.2,0.04 0.28,0.04 0.16,0.04 0.36,0.08 0.52,0.16 0.2,0.04 0.44,0.16 0.6,0.24 0.08,0 0.12,0.04 0.16,0.04 0.08,0.04 0.12,0.08 0.16,0.08 0.08,0.08 0.2,0.12 0.28,0.16 0.12,0.08 0.24,0.12 0.32,0.2 0.08,0.08 0.2,0.12 0.28,0.2 0.08,0.08 0.2,0.16 0.28,0.24 0.08,0.08 0.16,0.16 0.28,0.24 0.68,0.64 1.2,1.44 1.6,2.28 0.4,0.84 0.64,1.68 0.84,2.56 0.16,0.84 0.24,1.72 0.2,2.56 0,0.28 0,0.52 -0.04,0.8 0,0.24 -0.04,0.52 -0.08,0.8 -0.12,0.56 -0.24,1.08 -0.4,1.64 -0.2,0.52 -0.44,1.08 -0.68,1.6 -0.28,0.48 -0.56,1 -0.88,1.48 -0.68,0.96 -1.52,1.84 -2.4,2.56 z m -6,-1.32 c 0.28,0 0.56,-0.04 0.84,-0.08 l -0.08,-0.28 c -0.36,0.04 -0.68,0.04 -1.04,0 0.08,0.12 0.16,0.2 0.28,0.36 z m -1.88,-0.32 c 0.16,-0.12 0.32,-0.2 0.48,-0.28 -0.24,-0.04 -0.44,-0.16 -0.64,-0.24 0,0.04 -0.04,0.12 -0.04,0.2 0,0.08 -0.04,0.12 -0.04,0.2 z m 4.04,-2.52 c 0.16,-0.08 0.28,-0.2 0.44,-0.28 0.12,-0.12 0.28,-0.2 0.4,-0.32 0.16,-0.12 0.28,-0.24 0.4,-0.36 0.12,-0.16 0.28,-0.28 0.4,-0.4 0.12,-0.16 0.2,-0.32 0.32,-0.44 0.12,-0.16 0.24,-0.32 0.32,-0.48 l 0.24,-0.48 0.24,-0.48 c 0.12,-0.32 0.2,-0.64 0.24,-0.96 0.04,-0.08 0.04,-0.16 0.04,-0.24 0.04,-0.08 0.04,-0.16 0.04,-0.24 v -0.24 c 0,-0.08 0.04,-0.16 0.04,-0.24 0,-0.64 -0.12,-1.24 -0.24,-1.72 -0.16,-0.52 -0.36,-1.04 -0.6,-1.32 -0.08,-0.08 -0.12,-0.16 -0.16,-0.16 -0.04,-0.04 -0.04,-0.08 -0.08,-0.08 0,-0.04 -0.04,-0.04 -0.08,-0.04 v -0.04 h -0.04 c -0.04,0 -0.04,-0.04 -0.04,-0.04 -0.04,-0.04 -0.04,0 -0.08,-0.04 v 0 h -0.08 -0.24 c -0.2,-0.04 -0.44,0 -0.68,0 -0.48,0.08 -0.96,0.16 -1.44,0.28 -0.64,0.16 -1.2,0.32 -1.6,0.52 -0.2,0.92 -0.36,1.92 -0.6,3 -0.32,1.6 -0.68,3.32 -1,5 0.04,0 0.04,0 0.08,0.04 0.04,0 0.04,0.04 0.12,0.04 0.04,0.04 0.08,0.04 0.12,0.08 0.08,0 0.12,0.04 0.2,0.08 0.04,0 0.12,0.04 0.2,0.04 0.04,0.04 0.08,0.04 0.12,0.04 0.04,0 0.08,0.04 0.12,0.04 0.32,0.08 0.72,0.08 1.24,0.04 0.48,-0.08 1.04,-0.28 1.64,-0.6 z"
         id="path266" />
    </g>
    <g
       id="SvgjsG2412"
       featurekey="sloganFeature-0"
       transform="matrix(0.59950869,0,0,0.59950869,58.908524,92.37929)"
       fill="#118df0">
      <path
         d="m 2.26,17.68 c -0.44,-0.82 0.68,-1.42 1.2,-0.6 0.26,0.42 1.04,1.14 2.28,1.14 0.52,0 1.82,-0.38 2,-1.86 C 7.86,15.46 7,14.58 5.52,13.84 3.44,12.86 1.86,12 1.86,10.28 c 0,-2.04 1.72,-3 3.56,-3 C 7.08,7.28 8,8.3 8.32,8.82 8.78,9.56 7.78,10.28 7.22,9.56 6.94,9.2 6.4,8.6 5.42,8.6 c -1.1,0 -2.24,0.52 -2.24,1.68 0,0.92 1.02,1.44 2.54,2.16 1.78,0.88 3.64,1.74 3.36,4.08 -0.22,1.84 -1.62,3.02 -3.34,3.02 -1.3,0 -2.9,-0.7 -3.48,-1.86 z M 13.44,15.86 V 8 c 0,-0.42 0.34,-0.64 0.66,-0.64 0.34,0 0.66,0.22 0.66,0.64 v 7.86 c 0,1.44 0.98,2.3 2.34,2.3 h 0.5 c 1.4,0 2.36,-0.98 2.36,-2.3 V 8 c 0,-0.42 0.32,-0.64 0.66,-0.64 0.32,0 0.66,0.22 0.66,0.64 v 7.86 c 0,2.06 -1.46,3.64 -3.68,3.64 h -0.5 c -2.22,0 -3.66,-1.54 -3.66,-3.64 z m 12.46,0.02 v -4.82 c 0,-2.88 1.58,-3.74 3.9,-3.74 1.92,0 3.78,0.98 3.78,3 0,0.44 -0.32,0.66 -0.66,0.66 -0.34,0 -0.68,-0.22 -0.68,-0.66 0,-1.02 -1.12,-1.7 -2.44,-1.7 -1.82,0 -2.58,0.74 -2.58,2.44 v 4.82 c 0,1.74 0.96,2.28 2.58,2.28 1.92,0 2.6,-0.92 2.6,-2.7 v -0.84 h -1.8 c -0.42,0 -0.64,-0.32 -0.64,-0.66 0,-0.34 0.22,-0.68 0.64,-0.68 h 2.5 c 0.4,0 0.62,0.4 0.62,0.68 v 1.5 c 0,2.88 -1.12,4 -3.92,4 -2.64,0 -3.9,-0.96 -3.9,-3.58 z m 18.4,2.98 -0.78,-2.54 H 39.8 l -0.74,2.5 c -0.26,0.86 -1.58,0.6 -1.3,-0.28 1.04,-3.5 2.06,-7.06 3.08,-10.6 0.12,-0.38 0.44,-0.58 0.76,-0.58 0.3,0 0.62,0.2 0.74,0.58 l 3.18,10.6 c 0.22,0.76 -0.96,1.18 -1.22,0.32 z m -2.66,-8.8 -1.44,4.92 h 2.94 c -0.5,-1.68 -0.96,-3.12 -1.5,-4.92 z m 9.66,5.84 v 2.86 c 0,0.44 -0.34,0.64 -0.66,0.64 -0.34,0 -0.66,-0.2 -0.66,-0.64 V 8.02 c 0,-0.4 0.22,-0.66 0.66,-0.66 h 2.7 c 0.76,0 3.16,0.22 3.16,2.92 v 2.5 c 0,1.52 -0.56,2.48 -1.84,2.9 l 1.36,2.74 c 0.28,0.54 -0.14,0.98 -0.58,0.98 -0.24,0 -0.54,-0.16 -0.7,-0.5 l -1.46,-3 z m 3.88,-3.12 v -2.5 C 55.18,9.8 55,8.7 53.34,8.7 H 51.3 v 5.86 h 1.86 c 0.98,0 2.02,-0.22 2.02,-1.78 z m 13.66,5.98 V 8 c 0,-0.48 0.38,-0.64 0.66,-0.64 h 4.6 c 0.44,0 0.66,0.32 0.66,0.66 0,0.34 -0.22,0.68 -0.66,0.68 h -3.94 v 3.88 h 3.14 c 0.44,0 0.68,0.34 0.68,0.68 0,0.34 -0.24,0.68 -0.68,0.68 h -3.14 v 4.82 c 0,0.42 -0.34,0.64 -0.66,0.64 -0.34,0 -0.66,-0.22 -0.66,-0.64 z M 80.12,15.9 v 2.86 c 0,0.44 -0.34,0.64 -0.66,0.64 -0.34,0 -0.66,-0.2 -0.66,-0.64 V 8.02 c 0,-0.4 0.22,-0.66 0.66,-0.66 h 2.7 c 0.76,0 3.16,0.22 3.16,2.92 v 2.5 c 0,1.52 -0.56,2.48 -1.84,2.9 l 1.36,2.74 c 0.28,0.54 -0.14,0.98 -0.58,0.98 -0.24,0 -0.54,-0.16 -0.7,-0.5 l -1.46,-3 z M 84,12.78 v -2.5 C 84,9.8 83.82,8.7 82.16,8.7 h -2.04 v 5.86 h 1.86 c 0.98,0 2.02,-0.22 2.02,-1.78 z m 6.14,5.92 V 8.06 c 0,-0.46 0.36,-0.7 0.7,-0.7 h 4.6 c 0.44,0 0.66,0.32 0.66,0.66 0,0.34 -0.22,0.68 -0.66,0.68 h -3.96 v 3.88 h 3.14 c 0.46,0 0.68,0.32 0.68,0.66 0,0.34 -0.24,0.7 -0.68,0.7 h -3.14 v 4.14 h 3.96 c 0.42,0 0.64,0.34 0.64,0.66 0,0.34 -0.22,0.66 -0.64,0.66 h -4.6 c -0.34,0 -0.7,-0.12 -0.7,-0.7 z m 10.52,0 V 8.06 c 0,-0.46 0.36,-0.7 0.7,-0.7 h 4.6 c 0.44,0 0.66,0.32 0.66,0.66 0,0.34 -0.22,0.68 -0.66,0.68 H 102 v 3.88 h 3.14 c 0.46,0 0.68,0.32 0.68,0.66 0,0.34 -0.24,0.7 -0.68,0.7 H 102 v 4.14 h 3.96 c 0.42,0 0.64,0.34 0.64,0.66 0,0.34 -0.22,0.66 -0.64,0.66 h -4.6 c -0.34,0 -0.7,-0.12 -0.7,-0.7 z"
         id="path269" />
    </g>
  </g>
</svg>
