<?xml version="1.0" standalone="no"?>
<!DOCTYPE svg PUBLIC "-//W3C//DTD SVG 20010904//EN"
 "http://www.w3.org/TR/2001/REC-SVG-20010904/DTD/svg10.dtd">
<svg version="1.0" xmlns="http://www.w3.org/2000/svg"
 width="700.000000pt" height="700.000000pt" viewBox="0 0 700.000000 700.000000"
 preserveAspectRatio="xMidYMid meet">
<metadata>
Created by potrace 1.16, written by Peter Selinger 2001-2019
</metadata>
<g transform="translate(0.000000,700.000000) scale(0.100000,-0.100000)"
fill="#000000" stroke="none">
<path d="M3010 5735 c-113 -36 -216 -142 -252 -259 -41 -136 -9 -274 91 -379
157 -166 410 -164 566 5 74 80 99 146 100 264 0 84 -2 95 -38 166 -43 88 -99
143 -186 185 -69 33 -207 42 -281 18z"/>
<path d="M2802 4912 c-62 -23 -116 -64 -154 -118 -30 -42 -377 -1113 -386
-1190 -6 -53 20 -140 57 -191 28 -38 32 -59 75 -349 25 -170 46 -314 46 -321
0 -8 -66 -12 -242 -15 l-243 -3 -55 -31 c-75 -43 -112 -97 -118 -172 -5 -68
15 -117 70 -169 68 -66 70 -66 540 -77 460 -10 462 -10 495 41 30 45 29 274
-2 691 l-27 357 97 320 c54 176 100 326 104 333 4 7 17 -20 32 -65 24 -78 25
-79 271 -358 137 -154 263 -288 281 -297 42 -23 79 -23 126 2 46 23 76 78 67
122 -3 17 -22 52 -41 78 -19 26 -35 50 -35 53 0 15 94 16 170 3 112 -21 153
-20 198 3 74 38 112 102 112 189 0 47 -5 67 -26 97 -36 54 -62 73 -123 91
-147 44 -302 -30 -395 -190 -21 -36 -40 -66 -41 -66 -1 0 -56 73 -122 163
l-119 162 -94 355 c-112 426 -132 470 -252 535 -70 38 -185 45 -266 17z"/>
<path d="M4604 4180 c-104 -21 -220 -109 -268 -204 -108 -214 -6 -467 221
-547 89 -31 209 -24 296 19 78 39 148 111 185 192 22 47 26 70 26 155 1 93 -1
105 -31 165 -82 167 -254 254 -429 220z"/>
<path d="M3159 3586 c-117 -42 -199 -140 -215 -259 -5 -34 3 -81 30 -188 20
-79 49 -227 66 -329 17 -102 33 -197 36 -212 l6 -28 -61 0 -61 0 0 -113 c0
-90 -4 -120 -18 -149 l-19 -36 31 -6 c17 -3 127 -6 244 -8 l214 -3 29 33 29
32 0 305 c0 168 3 305 8 305 16 0 414 -69 416 -72 1 -2 15 -30 31 -63 38 -80
119 -160 175 -175 57 -15 92 -7 151 35 l48 35 -4 -28 c-14 -79 -35 -258 -35
-296 0 -32 6 -48 23 -64 23 -22 27 -22 408 -22 230 0 399 4 421 10 52 15 98
70 98 119 0 31 -6 44 -30 65 -36 30 -46 31 -355 52 -132 9 -241 17 -242 18 -2
1 18 117 44 257 26 140 47 281 46 314 0 101 -61 194 -153 233 -45 19 -118 18
-255 -3 -81 -13 -146 -16 -248 -13 l-137 5 -21 -33 c-29 -47 -95 -84 -150 -84
-81 1 -114 25 -279 209 -152 169 -154 171 -194 171 -23 -1 -57 -7 -77 -14z"/>
<path d="M535 824 c-52 -56 -16 -144 58 -144 34 0 77 33 77 58 0 20 -28 13
-35 -8 -9 -28 -51 -37 -75 -15 -25 23 -26 76 -2 98 23 21 46 22 66 1 9 -8 24
-14 33 -12 16 3 15 6 -5 26 -32 32 -86 30 -117 -4z"/>
<path d="M1083 833 c-4 -10 -11 -21 -17 -25 -8 -6 -7 -10 1 -16 6 -4 13 -30
15 -57 3 -46 5 -50 31 -53 29 -4 37 12 12 22 -10 3 -15 19 -15 46 0 29 4 40
15 40 8 0 15 5 15 10 0 6 -7 10 -15 10 -8 0 -15 9 -15 20 0 25 -18 26 -27 3z"/>
<path d="M1400 818 c0 -25 -3 -29 -12 -20 -19 19 -55 14 -72 -10 -20 -28 -20
-57 -1 -85 13 -18 25 -22 65 -21 l50 1 0 84 c0 67 -3 83 -15 83 -10 0 -15 -10
-15 -32z m-12 -40 c30 -30 -2 -93 -36 -71 -21 13 -27 50 -12 69 15 17 32 18
48 2z"/>
<path d="M1530 766 l0 -83 50 -2 c40 0 52 3 65 21 34 50 0 115 -56 104 -26 -5
-29 -3 -29 19 0 16 -6 25 -15 25 -12 0 -15 -16 -15 -84z m88 12 c30 -30 -2
-93 -36 -71 -21 13 -27 50 -12 69 15 17 32 18 48 2z"/>
<path d="M2100 840 c0 -5 7 -10 15 -10 8 0 15 5 15 10 0 6 -7 10 -15 10 -8 0
-15 -4 -15 -10z"/>
<path d="M2160 765 c0 -69 3 -85 15 -85 9 0 15 9 15 24 0 37 17 40 36 6 10
-16 26 -30 36 -30 16 0 15 5 -8 40 l-27 41 23 24 c33 35 4 33 -32 -2 l-28 -27
0 47 c0 35 -4 47 -15 47 -12 0 -15 -16 -15 -85z"/>
<path d="M2300 840 c0 -5 7 -10 15 -10 8 0 15 5 15 10 0 6 -7 10 -15 10 -8 0
-15 -4 -15 -10z"/>
<path d="M690 744 c0 -49 3 -64 14 -64 11 0 16 14 18 48 2 38 7 49 26 57 33
15 27 22 -18 22 l-40 0 0 -63z"/>
<path d="M790 790 c-11 -11 -20 -31 -20 -45 0 -53 69 -85 105 -49 22 22 11 30
-20 14 -20 -11 -27 -11 -40 0 -26 21 -17 30 30 30 37 0 45 3 45 18 0 25 -31
52 -58 52 -12 0 -31 -9 -42 -20z m68 -17 c2 -9 -7 -13 -27 -13 -31 0 -42 14
-18 23 19 8 40 3 45 -10z"/>
<path d="M930 795 c-18 -22 -4 -31 24 -16 24 13 46 8 46 -9 0 -5 -16 -12 -35
-16 -43 -8 -63 -29 -48 -52 7 -12 25 -17 65 -18 l55 -1 -5 51 c-2 30 -11 56
-20 64 -22 17 -67 15 -82 -3z m70 -69 c0 -18 -39 -31 -52 -18 -15 15 0 32 28
32 14 0 24 -6 24 -14z"/>
<path d="M1180 790 c-11 -11 -20 -31 -20 -45 0 -53 69 -85 105 -49 22 22 11
30 -20 14 -20 -11 -27 -11 -40 0 -26 21 -17 30 30 30 37 0 45 3 45 18 0 25
-31 52 -58 52 -12 0 -31 -9 -42 -20z m68 -17 c2 -9 -7 -13 -27 -13 -31 0 -42
14 -18 23 19 8 40 3 45 -10z"/>
<path d="M1670 805 c0 -3 11 -33 25 -66 24 -59 24 -60 5 -79 -25 -25 -25 -30
-1 -30 25 0 35 14 65 94 30 78 31 86 13 86 -8 0 -20 -21 -28 -47 l-15 -48 -18
48 c-11 26 -25 47 -32 47 -8 0 -14 -2 -14 -5z"/>
<path d="M1880 744 c0 -50 3 -64 15 -64 11 0 15 12 15 49 0 35 4 51 16 55 26
10 34 -3 34 -55 0 -36 4 -49 14 -49 11 0 16 15 18 53 3 44 6 52 23 52 17 0 20
-8 23 -52 2 -38 7 -53 18 -53 18 0 20 100 2 118 -15 15 -55 16 -63 2 -4 -7
-11 -8 -18 -2 -7 5 -31 10 -54 9 l-43 0 0 -63z"/>
<path d="M2100 745 c0 -51 3 -65 15 -65 12 0 15 14 15 65 0 51 -3 65 -15 65
-12 0 -15 -14 -15 -65z"/>
<path d="M2300 745 c0 -51 3 -65 15 -65 12 0 15 14 15 65 0 51 -3 65 -15 65
-12 0 -15 -14 -15 -65z"/>
<path d="M2370 790 c-39 -39 -11 -110 43 -110 22 0 57 27 57 43 0 14 -23 7
-36 -10 -17 -24 -48 -6 -52 29 -4 36 22 55 53 38 31 -16 47 -4 21 16 -28 20
-63 17 -86 -6z"/>
<path d="M2510 790 c-11 -11 -20 -31 -20 -45 0 -14 9 -34 20 -45 40 -40 110
-11 110 45 0 32 -33 65 -65 65 -14 0 -34 -9 -45 -20z m68 -12 c30 -30 -2 -93
-36 -71 -21 13 -27 50 -12 69 15 17 32 18 48 2z"/>
<path d="M2640 744 c0 -50 3 -64 15 -64 11 0 15 12 15 49 0 35 4 51 16 55 26
10 34 -3 34 -55 0 -37 4 -49 15 -49 11 0 15 13 15 54 0 63 -10 74 -67 73 l-43
0 0 -63z"/>
<path d="M533 573 c-4 -10 -11 -22 -17 -26 -8 -6 -7 -10 2 -14 7 -3 12 -25 12
-59 0 -41 4 -54 15 -54 11 0 15 13 15 54 0 34 5 57 13 60 10 5 10 7 0 12 -18
8 -16 24 3 24 8 0 12 5 9 10 -10 16 -45 11 -52 -7z"/>
<path d="M1120 505 c0 -69 3 -85 15 -85 12 0 15 14 15 62 l0 61 40 -61 c56
-88 70 -83 70 23 0 69 -3 85 -15 85 -12 0 -15 -14 -15 -62 l0 -61 -40 61 c-56
88 -70 83 -70 -23z"/>
<path d="M1800 505 c0 -69 3 -85 15 -85 10 0 15 11 15 35 0 34 1 35 39 35 63
0 93 47 53 83 -12 11 -36 17 -70 17 l-52 0 0 -85z m98 56 c8 -5 12 -17 10 -27
-2 -14 -13 -20 -41 -22 -35 -3 -37 -2 -37 27 0 27 3 31 28 31 15 0 33 -4 40
-9z"/>
<path d="M2200 580 c0 -5 7 -10 15 -10 8 0 15 5 15 10 0 6 -7 10 -15 10 -8 0
-15 -4 -15 -10z"/>
<path d="M2553 573 c-4 -10 -11 -21 -17 -25 -8 -6 -7 -10 1 -16 6 -4 13 -30
15 -57 3 -46 5 -50 31 -53 29 -4 37 12 12 22 -10 3 -15 19 -15 46 0 29 4 40
15 40 8 0 15 5 15 10 0 6 -7 10 -15 10 -8 0 -15 9 -15 20 0 25 -18 26 -27 3z"/>
<path d="M600 484 c0 -49 3 -64 14 -64 11 0 16 14 18 48 2 38 7 49 26 57 33
15 27 22 -18 22 l-40 0 0 -63z"/>
<path d="M700 530 c-11 -11 -20 -31 -20 -45 0 -14 9 -34 20 -45 11 -11 31 -20
45 -20 14 0 34 9 45 20 11 11 20 31 20 45 0 14 -9 34 -20 45 -11 11 -31 20
-45 20 -14 0 -34 -9 -45 -20z m68 -12 c30 -30 -2 -93 -36 -71 -21 13 -27 50
-12 69 15 17 32 18 48 2z"/>
<path d="M830 484 c0 -50 3 -64 15 -64 11 0 15 12 15 49 0 35 4 51 16 55 26
10 34 -3 34 -55 0 -36 4 -49 14 -49 11 0 16 15 18 53 3 44 6 52 23 52 17 0 20
-8 23 -52 2 -38 7 -53 18 -53 18 0 20 100 2 118 -15 15 -55 16 -63 2 -4 -7
-11 -8 -18 -2 -7 5 -31 10 -54 9 l-43 0 0 -63z"/>
<path d="M1310 530 c-11 -11 -20 -31 -20 -45 0 -14 9 -34 20 -45 11 -11 31
-20 45 -20 14 0 34 9 45 20 11 11 20 31 20 45 0 14 -9 34 -20 45 -11 11 -31
20 -45 20 -14 0 -34 -9 -45 -20z m68 -12 c30 -30 -2 -93 -36 -71 -21 13 -27
50 -12 69 15 17 32 18 48 2z"/>
<path d="M1440 496 c0 -63 10 -74 68 -73 l42 0 0 63 c0 49 -3 64 -14 64 -11 0
-16 -15 -18 -52 -3 -45 -6 -53 -23 -53 -17 0 -20 8 -23 53 -2 37 -7 52 -18 52
-10 0 -14 -14 -14 -54z"/>
<path d="M1580 484 c0 -50 3 -64 15 -64 11 0 15 12 15 49 0 35 4 51 16 55 26
10 34 -3 34 -55 0 -37 4 -49 15 -49 11 0 15 13 15 54 0 63 -10 74 -67 73 l-43
0 0 -63z"/>
<path d="M1960 484 c0 -49 3 -64 14 -64 11 0 16 14 18 48 2 38 7 49 26 57 33
15 27 22 -18 22 l-40 0 0 -63z"/>
<path d="M2060 530 c-11 -11 -20 -31 -20 -45 0 -14 9 -34 20 -45 11 -11 31
-20 45 -20 14 0 34 9 45 20 11 11 20 31 20 45 0 14 -9 34 -20 45 -11 11 -31
20 -45 20 -14 0 -34 -9 -45 -20z m68 -12 c30 -30 -2 -93 -36 -71 -21 13 -27
50 -12 69 15 17 32 18 48 2z"/>
<path d="M2200 471 c0 -54 -4 -81 -12 -84 -7 -2 -9 -8 -5 -13 4 -4 16 -3 25 2
24 16 31 174 7 174 -12 0 -15 -15 -15 -79z"/>
<path d="M2270 530 c-11 -11 -20 -31 -20 -45 0 -53 69 -85 105 -49 22 22 11
30 -20 14 -20 -11 -27 -11 -40 0 -26 21 -17 30 30 30 37 0 45 3 45 18 0 25
-31 52 -58 52 -12 0 -31 -9 -42 -20z m68 -17 c2 -9 -7 -13 -27 -13 -31 0 -42
14 -18 23 19 8 40 3 45 -10z"/>
<path d="M2410 530 c-39 -39 -11 -110 43 -110 22 0 57 27 57 43 0 14 -23 7
-36 -10 -17 -24 -48 -6 -52 29 -4 36 22 55 53 38 31 -16 47 -4 21 16 -28 20
-63 17 -86 -6z"/>
</g>
</svg>
