<?xml version="1.0" standalone="no"?>
<!DOCTYPE svg PUBLIC "-//W3C//DTD SVG 20010904//EN"
 "http://www.w3.org/TR/2001/REC-SVG-20010904/DTD/svg10.dtd">
<svg version="1.0" xmlns="http://www.w3.org/2000/svg"
 width="700.000000pt" height="700.000000pt" viewBox="0 0 700.000000 700.000000"
 preserveAspectRatio="xMidYMid meet">
<metadata>
Created by potrace 1.16, written by Peter Selinger 2001-2019
</metadata>
<g transform="translate(0.000000,700.000000) scale(0.100000,-0.100000)"
fill="#000000" stroke="none">
<path d="M4080 5043 c-165 -59 -263 -198 -264 -373 0 -75 4 -93 31 -152 58
-123 159 -203 290 -228 166 -33 341 60 417 220 28 59 31 74 31 165 0 88 -3
107 -27 157 -37 80 -107 152 -186 190 -56 28 -77 33 -156 35 -64 2 -104 -2
-136 -14z"/>
<path d="M3470 4566 c-30 -6 -62 -15 -70 -20 -60 -35 -520 -340 -520 -345 0
-20 230 -526 239 -524 5 1 108 56 228 121 120 66 228 124 240 131 21 11 25 8
45 -33 l22 -45 -26 -48 c-15 -28 -29 -74 -33 -110 l-7 -63 -128 0 c-105 0
-226 -8 -355 -23 -16 -2 -39 43 -151 296 -73 163 -134 303 -137 311 -4 9 19
30 65 61 82 54 91 39 -90 140 -106 58 -130 68 -175 69 -92 1 -171 -61 -197
-152 -7 -28 2 -128 41 -446 27 -226 58 -485 69 -576 16 -129 25 -175 45 -217
43 -88 128 -135 269 -149 48 -5 103 2 266 34 291 57 400 70 700 82 146 5 281
11 300 12 19 1 49 -6 67 -15 100 -52 223 34 196 136 -9 31 -8 47 4 76 25 57
20 142 -11 206 -30 59 -81 106 -202 181 -70 44 -73 47 -107 127 -19 45 -81
205 -138 355 -121 317 -141 350 -239 399 -76 37 -134 45 -210 29z"/>
<path d="M2368 3843 c-44 -46 -68 -92 -83 -158 l-11 -50 -190 -137 -189 -137
-390 0 c-220 -1 -405 -5 -424 -11 -47 -13 -93 -47 -122 -88 -20 -30 -24 -48
-24 -108 0 -66 3 -76 31 -111 17 -21 50 -49 74 -62 42 -24 45 -24 496 -34
l453 -10 256 124 c140 68 254 128 252 134 -2 5 -22 162 -43 348 -21 185 -41
337 -44 337 -3 0 -22 -17 -42 -37z"/>
<path d="M4723 3766 c-224 -73 -333 -327 -232 -541 50 -107 164 -193 287 -215
167 -30 344 66 420 227 24 51 27 70 27 158 0 92 -3 105 -32 166 -39 80 -111
150 -191 187 -69 32 -209 41 -279 18z"/>
<path d="M5393 3435 c-86 -43 -127 -130 -109 -228 10 -51 68 -112 143 -149 59
-29 77 -33 143 -32 94 1 165 27 275 100 69 45 232 194 213 194 -4 0 -23 -10
-43 -22 -26 -14 -60 -23 -110 -26 -63 -4 -80 -1 -126 20 -30 14 -83 51 -119
83 -36 32 -79 64 -97 71 -50 21 -113 17 -170 -11z"/>
<path d="M535 824 c-52 -56 -16 -144 58 -144 34 0 77 33 77 58 0 20 -28 13
-35 -8 -9 -28 -51 -37 -75 -15 -25 23 -26 76 -2 98 23 21 46 22 66 1 9 -8 24
-14 33 -12 16 3 15 6 -5 26 -32 32 -86 30 -117 -4z"/>
<path d="M1083 833 c-4 -10 -11 -21 -17 -25 -8 -6 -7 -10 1 -16 6 -4 13 -30
15 -57 3 -46 5 -50 31 -53 29 -4 37 12 12 22 -10 3 -15 19 -15 46 0 29 4 40
15 40 8 0 15 5 15 10 0 6 -7 10 -15 10 -8 0 -15 9 -15 20 0 25 -18 26 -27 3z"/>
<path d="M1400 818 c0 -25 -3 -29 -12 -20 -19 19 -55 14 -72 -10 -20 -28 -20
-57 -1 -85 13 -18 25 -22 65 -21 l50 1 0 84 c0 67 -3 83 -15 83 -10 0 -15 -10
-15 -32z m-12 -40 c30 -30 -2 -93 -36 -71 -21 13 -27 50 -12 69 15 17 32 18
48 2z"/>
<path d="M1530 766 l0 -83 50 -2 c40 0 52 3 65 21 34 50 0 115 -56 104 -26 -5
-29 -3 -29 19 0 16 -6 25 -15 25 -12 0 -15 -16 -15 -84z m88 12 c30 -30 -2
-93 -36 -71 -21 13 -27 50 -12 69 15 17 32 18 48 2z"/>
<path d="M2100 840 c0 -5 7 -10 15 -10 8 0 15 5 15 10 0 6 -7 10 -15 10 -8 0
-15 -4 -15 -10z"/>
<path d="M2160 765 c0 -69 3 -85 15 -85 9 0 15 9 15 24 0 37 17 40 36 6 10
-16 26 -30 36 -30 16 0 15 5 -8 40 l-27 41 23 24 c33 35 4 33 -32 -2 l-28 -27
0 47 c0 35 -4 47 -15 47 -12 0 -15 -16 -15 -85z"/>
<path d="M2300 840 c0 -5 7 -10 15 -10 8 0 15 5 15 10 0 6 -7 10 -15 10 -8 0
-15 -4 -15 -10z"/>
<path d="M690 744 c0 -49 3 -64 14 -64 11 0 16 14 18 48 2 38 7 49 26 57 33
15 27 22 -18 22 l-40 0 0 -63z"/>
<path d="M790 790 c-11 -11 -20 -31 -20 -45 0 -53 69 -85 105 -49 22 22 11 30
-20 14 -20 -11 -27 -11 -40 0 -26 21 -17 30 30 30 37 0 45 3 45 18 0 25 -31
52 -58 52 -12 0 -31 -9 -42 -20z m68 -17 c2 -9 -7 -13 -27 -13 -31 0 -42 14
-18 23 19 8 40 3 45 -10z"/>
<path d="M930 795 c-18 -22 -4 -31 24 -16 24 13 46 8 46 -9 0 -5 -16 -12 -35
-16 -43 -8 -63 -29 -48 -52 7 -12 25 -17 65 -18 l55 -1 -5 51 c-2 30 -11 56
-20 64 -22 17 -67 15 -82 -3z m70 -69 c0 -18 -39 -31 -52 -18 -15 15 0 32 28
32 14 0 24 -6 24 -14z"/>
<path d="M1180 790 c-11 -11 -20 -31 -20 -45 0 -53 69 -85 105 -49 22 22 11
30 -20 14 -20 -11 -27 -11 -40 0 -26 21 -17 30 30 30 37 0 45 3 45 18 0 25
-31 52 -58 52 -12 0 -31 -9 -42 -20z m68 -17 c2 -9 -7 -13 -27 -13 -31 0 -42
14 -18 23 19 8 40 3 45 -10z"/>
<path d="M1670 805 c0 -3 11 -33 25 -66 24 -59 24 -60 5 -79 -25 -25 -25 -30
-1 -30 25 0 35 14 65 94 30 78 31 86 13 86 -8 0 -20 -21 -28 -47 l-15 -48 -18
48 c-11 26 -25 47 -32 47 -8 0 -14 -2 -14 -5z"/>
<path d="M1880 744 c0 -50 3 -64 15 -64 11 0 15 12 15 49 0 35 4 51 16 55 26
10 34 -3 34 -55 0 -36 4 -49 14 -49 11 0 16 15 18 53 3 44 6 52 23 52 17 0 20
-8 23 -52 2 -38 7 -53 18 -53 18 0 20 100 2 118 -15 15 -55 16 -63 2 -4 -7
-11 -8 -18 -2 -7 5 -31 10 -54 9 l-43 0 0 -63z"/>
<path d="M2100 745 c0 -51 3 -65 15 -65 12 0 15 14 15 65 0 51 -3 65 -15 65
-12 0 -15 -14 -15 -65z"/>
<path d="M2300 745 c0 -51 3 -65 15 -65 12 0 15 14 15 65 0 51 -3 65 -15 65
-12 0 -15 -14 -15 -65z"/>
<path d="M2370 790 c-39 -39 -11 -110 43 -110 22 0 57 27 57 43 0 14 -23 7
-36 -10 -17 -24 -48 -6 -52 29 -4 36 22 55 53 38 31 -16 47 -4 21 16 -28 20
-63 17 -86 -6z"/>
<path d="M2510 790 c-11 -11 -20 -31 -20 -45 0 -14 9 -34 20 -45 40 -40 110
-11 110 45 0 32 -33 65 -65 65 -14 0 -34 -9 -45 -20z m68 -12 c30 -30 -2 -93
-36 -71 -21 13 -27 50 -12 69 15 17 32 18 48 2z"/>
<path d="M2640 744 c0 -50 3 -64 15 -64 11 0 15 12 15 49 0 35 4 51 16 55 26
10 34 -3 34 -55 0 -37 4 -49 15 -49 11 0 15 13 15 54 0 63 -10 74 -67 73 l-43
0 0 -63z"/>
<path d="M533 573 c-4 -10 -11 -22 -17 -26 -8 -6 -7 -10 2 -14 7 -3 12 -25 12
-59 0 -41 4 -54 15 -54 11 0 15 13 15 54 0 34 5 57 13 60 10 5 10 7 0 12 -18
8 -16 24 3 24 8 0 12 5 9 10 -10 16 -45 11 -52 -7z"/>
<path d="M1120 505 c0 -69 3 -85 15 -85 12 0 15 14 15 62 l0 61 40 -61 c56
-88 70 -83 70 23 0 69 -3 85 -15 85 -12 0 -15 -14 -15 -62 l0 -61 -40 61 c-56
88 -70 83 -70 -23z"/>
<path d="M1800 505 c0 -69 3 -85 15 -85 10 0 15 11 15 35 0 34 1 35 39 35 63
0 93 47 53 83 -12 11 -36 17 -70 17 l-52 0 0 -85z m98 56 c8 -5 12 -17 10 -27
-2 -14 -13 -20 -41 -22 -35 -3 -37 -2 -37 27 0 27 3 31 28 31 15 0 33 -4 40
-9z"/>
<path d="M2200 580 c0 -5 7 -10 15 -10 8 0 15 5 15 10 0 6 -7 10 -15 10 -8 0
-15 -4 -15 -10z"/>
<path d="M2553 573 c-4 -10 -11 -21 -17 -25 -8 -6 -7 -10 1 -16 6 -4 13 -30
15 -57 3 -46 5 -50 31 -53 29 -4 37 12 12 22 -10 3 -15 19 -15 46 0 29 4 40
15 40 8 0 15 5 15 10 0 6 -7 10 -15 10 -8 0 -15 9 -15 20 0 25 -18 26 -27 3z"/>
<path d="M600 484 c0 -49 3 -64 14 -64 11 0 16 14 18 48 2 38 7 49 26 57 33
15 27 22 -18 22 l-40 0 0 -63z"/>
<path d="M700 530 c-11 -11 -20 -31 -20 -45 0 -14 9 -34 20 -45 11 -11 31 -20
45 -20 14 0 34 9 45 20 11 11 20 31 20 45 0 14 -9 34 -20 45 -11 11 -31 20
-45 20 -14 0 -34 -9 -45 -20z m68 -12 c30 -30 -2 -93 -36 -71 -21 13 -27 50
-12 69 15 17 32 18 48 2z"/>
<path d="M830 484 c0 -50 3 -64 15 -64 11 0 15 12 15 49 0 35 4 51 16 55 26
10 34 -3 34 -55 0 -36 4 -49 14 -49 11 0 16 15 18 53 3 44 6 52 23 52 17 0 20
-8 23 -52 2 -38 7 -53 18 -53 18 0 20 100 2 118 -15 15 -55 16 -63 2 -4 -7
-11 -8 -18 -2 -7 5 -31 10 -54 9 l-43 0 0 -63z"/>
<path d="M1310 530 c-11 -11 -20 -31 -20 -45 0 -14 9 -34 20 -45 11 -11 31
-20 45 -20 14 0 34 9 45 20 11 11 20 31 20 45 0 14 -9 34 -20 45 -11 11 -31
20 -45 20 -14 0 -34 -9 -45 -20z m68 -12 c30 -30 -2 -93 -36 -71 -21 13 -27
50 -12 69 15 17 32 18 48 2z"/>
<path d="M1440 496 c0 -63 10 -74 68 -73 l42 0 0 63 c0 49 -3 64 -14 64 -11 0
-16 -15 -18 -52 -3 -45 -6 -53 -23 -53 -17 0 -20 8 -23 53 -2 37 -7 52 -18 52
-10 0 -14 -14 -14 -54z"/>
<path d="M1580 484 c0 -50 3 -64 15 -64 11 0 15 12 15 49 0 35 4 51 16 55 26
10 34 -3 34 -55 0 -37 4 -49 15 -49 11 0 15 13 15 54 0 63 -10 74 -67 73 l-43
0 0 -63z"/>
<path d="M1960 484 c0 -49 3 -64 14 -64 11 0 16 14 18 48 2 38 7 49 26 57 33
15 27 22 -18 22 l-40 0 0 -63z"/>
<path d="M2060 530 c-11 -11 -20 -31 -20 -45 0 -14 9 -34 20 -45 11 -11 31
-20 45 -20 14 0 34 9 45 20 11 11 20 31 20 45 0 14 -9 34 -20 45 -11 11 -31
20 -45 20 -14 0 -34 -9 -45 -20z m68 -12 c30 -30 -2 -93 -36 -71 -21 13 -27
50 -12 69 15 17 32 18 48 2z"/>
<path d="M2200 471 c0 -54 -4 -81 -12 -84 -7 -2 -9 -8 -5 -13 4 -4 16 -3 25 2
24 16 31 174 7 174 -12 0 -15 -15 -15 -79z"/>
<path d="M2270 530 c-11 -11 -20 -31 -20 -45 0 -53 69 -85 105 -49 22 22 11
30 -20 14 -20 -11 -27 -11 -40 0 -26 21 -17 30 30 30 37 0 45 3 45 18 0 25
-31 52 -58 52 -12 0 -31 -9 -42 -20z m68 -17 c2 -9 -7 -13 -27 -13 -31 0 -42
14 -18 23 19 8 40 3 45 -10z"/>
<path d="M2410 530 c-39 -39 -11 -110 43 -110 22 0 57 27 57 43 0 14 -23 7
-36 -10 -17 -24 -48 -6 -52 29 -4 36 22 55 53 38 31 -16 47 -4 21 16 -28 20
-63 17 -86 -6z"/>
</g>
</svg>
