<?xml version="1.0" standalone="no"?>
<!DOCTYPE svg PUBLIC "-//W3C//DTD SVG 20010904//EN"
 "http://www.w3.org/TR/2001/REC-SVG-20010904/DTD/svg10.dtd">
<svg version="1.0" xmlns="http://www.w3.org/2000/svg"
 width="700.000000pt" height="700.000000pt" viewBox="0 0 700.000000 700.000000"
 preserveAspectRatio="xMidYMid meet">
<metadata>
Created by potrace 1.16, written by Peter Selinger 2001-2019
</metadata>
<g transform="translate(0.000000,700.000000) scale(0.100000,-0.100000)"
fill="#000000" stroke="none">
<path d="M2590 6216 c-158 -35 -286 -174 -305 -331 -21 -161 71 -327 220 -401
55 -26 69 -29 165 -29 99 0 110 2 171 32 80 39 150 111 187 191 24 50 27 69
27 157 0 88 -3 107 -27 158 -55 117 -166 203 -292 226 -71 13 -75 13 -146 -3z"/>
<path d="M2705 5367 c-22 -8 -54 -21 -71 -30 -36 -19 -111 -98 -123 -130 -5
-13 -106 -189 -225 -391 -119 -202 -218 -377 -221 -389 -4 -13 -2 -34 4 -47
12 -32 526 -631 555 -647 11 -7 37 -12 57 -13 29 0 45 -9 80 -43 24 -24 52
-48 62 -53 17 -10 17 -30 2 -465 -13 -398 -20 -499 -56 -818 -23 -212 -37
-380 -34 -402 15 -85 105 -159 193 -159 75 0 154 47 187 111 13 23 95 591 130
899 14 123 14 136 0 146 -34 25 -336 431 -346 466 -24 76 16 154 90 177 80 23
126 -2 226 -123 43 -53 81 -93 84 -90 3 2 13 80 22 172 l17 167 -124 727
c-135 796 -134 789 -214 862 -24 21 -63 47 -88 58 -57 26 -154 32 -207 15z
m-125 -970 c16 -104 30 -198 30 -209 0 -13 -31 23 -85 100 -50 70 -85 130 -85
144 0 25 102 179 107 162 1 -5 16 -94 33 -197z"/>
<path d="M3645 4457 c-73 -25 -120 -54 -173 -111 -213 -226 -90 -590 220 -647
164 -30 337 60 414 216 26 55 29 69 29 165 0 93 -3 112 -27 162 -37 80 -107
152 -186 190 -55 27 -77 32 -151 35 -52 2 -102 -2 -126 -10z"/>
<path d="M4270 3985 c-100 -46 -145 -140 -115 -243 23 -77 66 -114 167 -147
177 -57 242 -125 257 -270 l7 -60 22 68 c34 105 45 190 40 306 -5 123 -32 198
-96 264 -77 80 -204 117 -282 82z"/>
<path d="M3735 3590 c-65 -21 -100 -50 -227 -192 -72 -81 -138 -150 -146 -153
-25 -9 -56 19 -152 137 -50 62 -103 121 -118 130 -40 27 -79 23 -113 -11 -31
-31 -37 -67 -18 -104 18 -32 299 -400 321 -419 13 -12 37 -18 68 -18 44 0 54
5 102 48 104 92 94 92 89 1 -4 -100 15 -158 67 -197 46 -35 126 -37 189 -4
l42 22 63 -88 c103 -140 168 -258 168 -302 0 -10 -84 -86 -214 -191 -117 -96
-223 -187 -234 -204 -49 -71 -36 -171 29 -230 22 -19 49 -35 62 -36 52 -2 544
4 822 10 332 8 360 13 392 74 19 38 13 110 -13 139 -40 45 -75 51 -349 59
-143 4 -269 8 -280 9 -11 0 50 37 135 81 184 95 239 145 266 236 19 66 14 144
-12 194 -9 19 -64 85 -123 147 -240 256 -261 284 -426 579 -59 103 -116 198
-128 211 -54 59 -188 95 -262 72z"/>
<path d="M535 824 c-52 -56 -16 -144 58 -144 34 0 77 33 77 58 0 20 -28 13
-35 -8 -9 -28 -51 -37 -75 -15 -25 23 -26 76 -2 98 23 21 46 22 66 1 9 -8 24
-14 33 -12 16 3 15 6 -5 26 -32 32 -86 30 -117 -4z"/>
<path d="M1083 833 c-4 -10 -11 -21 -17 -25 -8 -6 -7 -10 1 -16 6 -4 13 -30
15 -57 3 -46 5 -50 31 -53 29 -4 37 12 12 22 -10 3 -15 19 -15 46 0 29 4 40
15 40 8 0 15 5 15 10 0 6 -7 10 -15 10 -8 0 -15 9 -15 20 0 25 -18 26 -27 3z"/>
<path d="M1400 818 c0 -25 -3 -29 -12 -20 -19 19 -55 14 -72 -10 -20 -28 -20
-57 -1 -85 13 -18 25 -22 65 -21 l50 1 0 84 c0 67 -3 83 -15 83 -10 0 -15 -10
-15 -32z m-12 -40 c30 -30 -2 -93 -36 -71 -21 13 -27 50 -12 69 15 17 32 18
48 2z"/>
<path d="M1530 766 l0 -83 50 -2 c40 0 52 3 65 21 34 50 0 115 -56 104 -26 -5
-29 -3 -29 19 0 16 -6 25 -15 25 -12 0 -15 -16 -15 -84z m88 12 c30 -30 -2
-93 -36 -71 -21 13 -27 50 -12 69 15 17 32 18 48 2z"/>
<path d="M2100 840 c0 -5 7 -10 15 -10 8 0 15 5 15 10 0 6 -7 10 -15 10 -8 0
-15 -4 -15 -10z"/>
<path d="M2160 765 c0 -69 3 -85 15 -85 9 0 15 9 15 24 0 37 17 40 36 6 10
-16 26 -30 36 -30 16 0 15 5 -8 40 l-27 41 23 24 c33 35 4 33 -32 -2 l-28 -27
0 47 c0 35 -4 47 -15 47 -12 0 -15 -16 -15 -85z"/>
<path d="M2300 840 c0 -5 7 -10 15 -10 8 0 15 5 15 10 0 6 -7 10 -15 10 -8 0
-15 -4 -15 -10z"/>
<path d="M690 744 c0 -49 3 -64 14 -64 11 0 16 14 18 48 2 38 7 49 26 57 33
15 27 22 -18 22 l-40 0 0 -63z"/>
<path d="M790 790 c-11 -11 -20 -31 -20 -45 0 -53 69 -85 105 -49 22 22 11 30
-20 14 -20 -11 -27 -11 -40 0 -26 21 -17 30 30 30 37 0 45 3 45 18 0 25 -31
52 -58 52 -12 0 -31 -9 -42 -20z m68 -17 c2 -9 -7 -13 -27 -13 -31 0 -42 14
-18 23 19 8 40 3 45 -10z"/>
<path d="M930 795 c-18 -22 -4 -31 24 -16 24 13 46 8 46 -9 0 -5 -16 -12 -35
-16 -43 -8 -63 -29 -48 -52 7 -12 25 -17 65 -18 l55 -1 -5 51 c-2 30 -11 56
-20 64 -22 17 -67 15 -82 -3z m70 -69 c0 -18 -39 -31 -52 -18 -15 15 0 32 28
32 14 0 24 -6 24 -14z"/>
<path d="M1180 790 c-11 -11 -20 -31 -20 -45 0 -53 69 -85 105 -49 22 22 11
30 -20 14 -20 -11 -27 -11 -40 0 -26 21 -17 30 30 30 37 0 45 3 45 18 0 25
-31 52 -58 52 -12 0 -31 -9 -42 -20z m68 -17 c2 -9 -7 -13 -27 -13 -31 0 -42
14 -18 23 19 8 40 3 45 -10z"/>
<path d="M1670 805 c0 -3 11 -33 25 -66 24 -59 24 -60 5 -79 -25 -25 -25 -30
-1 -30 25 0 35 14 65 94 30 78 31 86 13 86 -8 0 -20 -21 -28 -47 l-15 -48 -18
48 c-11 26 -25 47 -32 47 -8 0 -14 -2 -14 -5z"/>
<path d="M1880 744 c0 -50 3 -64 15 -64 11 0 15 12 15 49 0 35 4 51 16 55 26
10 34 -3 34 -55 0 -36 4 -49 14 -49 11 0 16 15 18 53 3 44 6 52 23 52 17 0 20
-8 23 -52 2 -38 7 -53 18 -53 18 0 20 100 2 118 -15 15 -55 16 -63 2 -4 -7
-11 -8 -18 -2 -7 5 -31 10 -54 9 l-43 0 0 -63z"/>
<path d="M2100 745 c0 -51 3 -65 15 -65 12 0 15 14 15 65 0 51 -3 65 -15 65
-12 0 -15 -14 -15 -65z"/>
<path d="M2300 745 c0 -51 3 -65 15 -65 12 0 15 14 15 65 0 51 -3 65 -15 65
-12 0 -15 -14 -15 -65z"/>
<path d="M2370 790 c-39 -39 -11 -110 43 -110 22 0 57 27 57 43 0 14 -23 7
-36 -10 -17 -24 -48 -6 -52 29 -4 36 22 55 53 38 31 -16 47 -4 21 16 -28 20
-63 17 -86 -6z"/>
<path d="M2510 790 c-11 -11 -20 -31 -20 -45 0 -14 9 -34 20 -45 40 -40 110
-11 110 45 0 32 -33 65 -65 65 -14 0 -34 -9 -45 -20z m68 -12 c30 -30 -2 -93
-36 -71 -21 13 -27 50 -12 69 15 17 32 18 48 2z"/>
<path d="M2640 744 c0 -50 3 -64 15 -64 11 0 15 12 15 49 0 35 4 51 16 55 26
10 34 -3 34 -55 0 -37 4 -49 15 -49 11 0 15 13 15 54 0 63 -10 74 -67 73 l-43
0 0 -63z"/>
<path d="M533 573 c-4 -10 -11 -22 -17 -26 -8 -6 -7 -10 2 -14 7 -3 12 -25 12
-59 0 -41 4 -54 15 -54 11 0 15 13 15 54 0 34 5 57 13 60 10 5 10 7 0 12 -18
8 -16 24 3 24 8 0 12 5 9 10 -10 16 -45 11 -52 -7z"/>
<path d="M1120 505 c0 -69 3 -85 15 -85 12 0 15 14 15 62 l0 61 40 -61 c56
-88 70 -83 70 23 0 69 -3 85 -15 85 -12 0 -15 -14 -15 -62 l0 -61 -40 61 c-56
88 -70 83 -70 -23z"/>
<path d="M1800 505 c0 -69 3 -85 15 -85 10 0 15 11 15 35 0 34 1 35 39 35 63
0 93 47 53 83 -12 11 -36 17 -70 17 l-52 0 0 -85z m98 56 c8 -5 12 -17 10 -27
-2 -14 -13 -20 -41 -22 -35 -3 -37 -2 -37 27 0 27 3 31 28 31 15 0 33 -4 40
-9z"/>
<path d="M2200 580 c0 -5 7 -10 15 -10 8 0 15 5 15 10 0 6 -7 10 -15 10 -8 0
-15 -4 -15 -10z"/>
<path d="M2553 573 c-4 -10 -11 -21 -17 -25 -8 -6 -7 -10 1 -16 6 -4 13 -30
15 -57 3 -46 5 -50 31 -53 29 -4 37 12 12 22 -10 3 -15 19 -15 46 0 29 4 40
15 40 8 0 15 5 15 10 0 6 -7 10 -15 10 -8 0 -15 9 -15 20 0 25 -18 26 -27 3z"/>
<path d="M600 484 c0 -49 3 -64 14 -64 11 0 16 14 18 48 2 38 7 49 26 57 33
15 27 22 -18 22 l-40 0 0 -63z"/>
<path d="M700 530 c-11 -11 -20 -31 -20 -45 0 -14 9 -34 20 -45 11 -11 31 -20
45 -20 14 0 34 9 45 20 11 11 20 31 20 45 0 14 -9 34 -20 45 -11 11 -31 20
-45 20 -14 0 -34 -9 -45 -20z m68 -12 c30 -30 -2 -93 -36 -71 -21 13 -27 50
-12 69 15 17 32 18 48 2z"/>
<path d="M830 484 c0 -50 3 -64 15 -64 11 0 15 12 15 49 0 35 4 51 16 55 26
10 34 -3 34 -55 0 -36 4 -49 14 -49 11 0 16 15 18 53 3 44 6 52 23 52 17 0 20
-8 23 -52 2 -38 7 -53 18 -53 18 0 20 100 2 118 -15 15 -55 16 -63 2 -4 -7
-11 -8 -18 -2 -7 5 -31 10 -54 9 l-43 0 0 -63z"/>
<path d="M1310 530 c-11 -11 -20 -31 -20 -45 0 -14 9 -34 20 -45 11 -11 31
-20 45 -20 14 0 34 9 45 20 11 11 20 31 20 45 0 14 -9 34 -20 45 -11 11 -31
20 -45 20 -14 0 -34 -9 -45 -20z m68 -12 c30 -30 -2 -93 -36 -71 -21 13 -27
50 -12 69 15 17 32 18 48 2z"/>
<path d="M1440 496 c0 -63 10 -74 68 -73 l42 0 0 63 c0 49 -3 64 -14 64 -11 0
-16 -15 -18 -52 -3 -45 -6 -53 -23 -53 -17 0 -20 8 -23 53 -2 37 -7 52 -18 52
-10 0 -14 -14 -14 -54z"/>
<path d="M1580 484 c0 -50 3 -64 15 -64 11 0 15 12 15 49 0 35 4 51 16 55 26
10 34 -3 34 -55 0 -37 4 -49 15 -49 11 0 15 13 15 54 0 63 -10 74 -67 73 l-43
0 0 -63z"/>
<path d="M1960 484 c0 -49 3 -64 14 -64 11 0 16 14 18 48 2 38 7 49 26 57 33
15 27 22 -18 22 l-40 0 0 -63z"/>
<path d="M2060 530 c-11 -11 -20 -31 -20 -45 0 -14 9 -34 20 -45 11 -11 31
-20 45 -20 14 0 34 9 45 20 11 11 20 31 20 45 0 14 -9 34 -20 45 -11 11 -31
20 -45 20 -14 0 -34 -9 -45 -20z m68 -12 c30 -30 -2 -93 -36 -71 -21 13 -27
50 -12 69 15 17 32 18 48 2z"/>
<path d="M2200 471 c0 -54 -4 -81 -12 -84 -7 -2 -9 -8 -5 -13 4 -4 16 -3 25 2
24 16 31 174 7 174 -12 0 -15 -15 -15 -79z"/>
<path d="M2270 530 c-11 -11 -20 -31 -20 -45 0 -53 69 -85 105 -49 22 22 11
30 -20 14 -20 -11 -27 -11 -40 0 -26 21 -17 30 30 30 37 0 45 3 45 18 0 25
-31 52 -58 52 -12 0 -31 -9 -42 -20z m68 -17 c2 -9 -7 -13 -27 -13 -31 0 -42
14 -18 23 19 8 40 3 45 -10z"/>
<path d="M2410 530 c-39 -39 -11 -110 43 -110 22 0 57 27 57 43 0 14 -23 7
-36 -10 -17 -24 -48 -6 -52 29 -4 36 22 55 53 38 31 -16 47 -4 21 16 -28 20
-63 17 -86 -6z"/>
</g>
</svg>
